<?xml version="1.0" encoding="UTF-8" standalone="no"?>
<svg width="222px" height="79px" viewBox="0 0 222 79" version="1.1" xmlns="http://www.w3.org/2000/svg" xmlns:xlink="http://www.w3.org/1999/xlink">
    <!-- Generator: Sketch 3.8.3 (29802) - http://www.bohemiancoding.com/sketch -->
    <title>Page 1</title>
    
    <defs>
        <polygon id="path-1" points="65.0378334 60.0184493 65.0378334 0.204877305 0.331618094 0.204877305 0.331618094 60.0184493 65.0378334 60.0184493"></polygon>
        <polygon id="path-3" points="0.33181335 21.4214876 65.0356913 21.4214876 65.0356913 0.521366052 0.33181335 0.521366052"></polygon>
        <polygon id="path-5" points="0 78.3405772 221.579474 78.3405772 221.579474 0.549268913 0 0.549268913"></polygon>
    </defs>
    <g id="Symbols" stroke="none" stroke-width="1" fill="none" fill-rule="evenodd">
        <g id="Footer" transform="translate(-1181.000000, -118.000000)">
            <g id="Page-1" transform="translate(1181.000000, 118.000000)">
                <g id="Group-3" transform="translate(156.541640, 0.344392)">
                    <mask id="mask-2" fill="white">
                        <use xlink:href="#path-1"></use>
                    </mask>
                    <g id="Clip-2"></g>
                    <path d="M32.0178736,60.0184493 L32.0178736,39.0709808 C29.7521394,38.7414195 28.0126047,36.7937119 28.0126047,34.4373483 C28.0159003,34.2132465 28.0279842,34.0479166 28.0279842,34.0479166 C28.0279842,33.8639115 28.0027179,33.6540908 27.898906,33.5112809 C27.6940287,33.2393928 27.2375863,33.0240793 27.0294134,32.9389427 L11.6273638,27.0255135 L11.0000987,26.7871308 C10.6035265,26.6333355 9.99713363,26.4042904 9.56595753,26.4498797 C8.96450807,26.5124964 8.64538284,26.748682 8.52179733,26.865127 C7.26507006,28.286635 5.21135359,28.8518327 3.33779733,28.1317411 C0.92760534,27.2073216 -0.280236999,24.5049185 0.640337699,22.0941772 C1.57134851,19.6867316 4.27045594,18.4915224 6.6811972,19.4175898 C8.52564221,20.1250482 9.66537521,21.8739204 9.68514889,23.8018543 C9.69393719,23.9529032 9.75820165,24.3615593 10.1849836,24.8355784 C10.4804903,25.1634919 11.0989671,25.3996776 11.4944407,25.5523743 L12.1030306,25.7852643 L27.3216244,31.6272885 L27.5056295,31.6975949 C27.7165488,31.773394 28.2021025,31.918401 28.5333116,31.8524887 C28.5750561,31.8442497 28.6162512,31.8310673 28.6547001,31.8129414 C28.5618736,31.4257068 28.2268196,31.0467113 28.0691794,30.8874233 L16.2033231,19.4269274 L15.7183186,18.9611474 C15.4118266,18.66619 14.9433002,18.216888 14.5297007,18.0900069 C13.9507713,17.9142408 13.5646352,18.0054195 13.406995,18.0647405 C11.693276,18.8820526 9.58188633,18.6013762 8.13785836,17.2051346 C6.2802309,15.4123209 6.22695181,12.4556064 8.01537139,10.594134 C9.81148074,8.74199924 12.765449,8.69805772 14.6230764,10.4908715 C16.0440351,11.8634945 16.4071018,13.9166617 15.6727293,15.69849 C15.6227458,15.8418492 15.5233282,16.243914 15.7309518,16.8470113 C15.8748603,17.2628079 16.3494286,17.7230952 16.6548221,18.0175034 L17.1260949,18.4706502 L28.8502398,29.7938289 L28.9919512,29.9316954 C29.1561826,30.0832936 29.5467128,30.4057144 29.8795697,30.4760209 C29.9196664,30.4837106 29.9625093,30.486457 30.0048031,30.4853584 C30.0723631,30.0920819 29.9097795,29.6142179 29.8279385,29.406045 L23.3811692,14.2187596 L23.119168,13.6013813 C22.9532887,13.2103018 22.6956816,12.6143451 22.3628247,12.3358657 C21.899791,11.9464341 21.5087115,11.8805218 21.3389874,11.8733813 C19.4445589,11.9563209 17.6116486,10.8737119 16.8250955,9.02377419 C15.8193841,6.64763687 16.9239639,3.90348938 19.2968056,2.89008824 C21.6756893,1.88602467 24.4099499,2.99939275 25.4189569,5.37607934 C26.191229,7.19525798 25.7238011,9.22920076 24.3528259,10.5820501 C24.2501127,10.6935517 24.0001953,11.0225638 23.9568031,11.6586172 C23.9238469,12.0991308 24.1858482,12.7088193 24.3495303,13.1009973 L24.6032926,13.700799 L30.974812,28.7040793 L31.0506111,28.8858873 C31.144536,29.0907647 31.375229,29.5400666 31.6537083,29.7334093 C31.6894108,29.7570278 31.7256626,29.7762523 31.7652099,29.7921811 C31.9810726,29.4576763 32.0195214,28.9517996 32.0255634,28.7276979 L32.0255634,12.2309554 L32.0255634,11.5586502 C32.0255634,11.1329668 32.0217185,10.4864773 31.8256295,10.0986935 C31.5520936,9.56040992 31.2164903,9.34729358 31.062695,9.27369154 C29.2852608,8.60907616 28.0219423,6.89590642 28.0219423,4.88723001 C28.0219423,2.30511685 30.1113612,0.210754482 32.6940236,0.204712524 C35.2722919,0.210754482 37.3573167,2.30511685 37.3573167,4.88723001 C37.3573167,6.86295029 36.132447,8.55140292 34.3423797,9.2621569 C34.2012175,9.32367502 33.8458406,9.5307494 33.5541788,10.0986935 C33.3542449,10.49197 33.3558927,11.1543883 33.3558927,11.5789732 L33.3542449,12.2309554 L33.3542449,28.5305104 L33.3558927,28.7276979 C33.3602868,28.9517996 33.3976371,29.4576763 33.5799944,29.7449439 C33.6470052,29.7746045 33.683257,29.75538 33.7167624,29.7334093 C33.9946924,29.5400666 34.2264839,29.0907647 34.3193104,28.8858873 L34.3967573,28.7040793 L40.7644318,13.700799 L41.0187433,13.1009973 C41.1862703,12.7088193 41.4444267,12.0991308 41.4153154,11.6586172 C41.3697261,11.0225638 41.1214566,10.6935517 41.0170955,10.5820501 C39.6472188,9.22920076 39.1781432,7.19525798 39.9520631,5.37607934 C40.9594223,2.99939275 43.6942322,1.88602467 46.071468,2.89008824 C48.4476053,3.90348938 49.5532837,6.64763687 48.5426289,9.02377419 C47.7599207,10.8737119 45.924264,11.9563209 44.0303847,11.8733813 C43.8612099,11.8805218 43.4701305,11.9464341 43.0032519,12.3358657 C42.672592,12.6143451 42.4177312,13.2103018 42.2513027,13.6013813 L41.9909493,14.2187596 L35.5436308,29.406045 C35.4606912,29.6142179 35.2964598,30.0920819 35.3519359,30.429333 C35.4074121,30.486457 35.4513536,30.4837106 35.4903517,30.4760209 C35.8254057,30.4057144 36.2126403,30.0832936 36.377421,29.9316954 L36.5202309,29.7938289 L48.2460236,18.4706502 L48.7150993,18.0175034 C49.0182957,17.7230952 49.4961597,17.2628079 49.6384203,16.8470113 C49.8493396,16.243914 49.7471756,15.8418492 49.694995,15.69849 C48.961721,13.9166617 49.3264356,11.8634945 50.746845,10.4908715 C52.6039232,8.69805772 55.5584407,8.74199924 57.3556486,10.594134 C59.1429696,12.4556064 59.0896905,15.4123209 57.2331616,17.2051346 C55.7874858,18.6013762 53.6777439,18.8820526 51.9640249,18.0647405 C51.8052862,18.0054195 51.4180516,17.9142408 50.84077,18.0900069 C50.4249734,18.216888 49.9575456,18.66619 49.649955,18.9611474 L49.1687954,19.4269274 L37.3029391,30.8874233 C37.141454,31.0467113 36.8091463,31.4257068 36.7256575,31.7541696 C36.7536702,31.8310673 36.7959639,31.8442497 36.834962,31.8524887 C37.1711146,31.918401 37.6522741,31.773394 37.8659397,31.6975949 L38.0488463,31.6272885 L53.2657922,25.7852643 L53.8743822,25.5523743 C54.2715036,25.3996776 54.8905297,25.1634919 55.1838393,24.8355784 C55.610072,24.3615593 55.6765335,23.9529032 55.6831247,23.8018543 C55.7056448,21.8739204 56.8431807,20.1250482 58.6887242,19.4175898 C61.0989162,18.4915224 63.7991222,19.6867316 64.7295837,22.0941772 C65.6490599,24.5049185 64.4428654,27.2073216 62.0348704,28.1317411 C60.1585678,28.8518327 58.1054006,28.286635 56.8481241,26.865127 C56.7234401,26.748682 56.4048641,26.5124964 55.8045132,26.4498797 C55.3716893,26.4042904 54.7680427,26.6333355 54.370372,26.7871308 L53.7420084,27.0255135 L38.3427051,32.9389427 C38.1323352,33.0240793 37.6747942,33.2393928 37.4732125,33.5112809 C37.3474299,33.6788079 37.3325996,33.942457 37.3424865,34.1440387 C37.3540211,34.306073 37.3474299,34.3412262 37.3474299,34.3412262 L37.3474299,34.4373483 C37.3474299,36.7937119 35.6089938,38.7414195 33.344358,39.0709808 L33.344358,60.0184493 L32.0178736,60.0184493 Z" id="Fill-1" fill="#E22726" mask="url(#mask-2)"></path>
                </g>
                <path d="M191.161181,45.8090273 C194.249171,39.4276211 200.535553,34.8241983 207.304194,33.0961983 C211.472596,32.2766891 217.132812,31.9921678 220.010432,35.7980521 C209.969796,37.3530324 200.247737,41.3885111 191.161181,45.8090273 M187.071874,46.7532206 C180.159874,49.4517788 171.446272,48.332918 164.796822,45.4300318 C161.611612,43.8415461 156.469906,40.8452842 158.09684,36.5324247 C168.161094,38.3148023 177.889196,42.3673083 187.071874,46.7532206 M187.354747,45.8090273 C178.267093,41.3885111 168.545583,37.3530324 158.504398,35.7980521 C161.383116,31.9921678 167.042783,32.2766891 171.211185,33.0961983 C177.981473,34.8241983 184.267856,39.4276211 187.354747,45.8090273 M191.442407,46.7532206 C200.625634,42.3673083 210.353735,38.3148023 220.419088,36.5324247 C222.046023,40.8452842 216.903218,43.8415461 213.715261,45.4300318 C207.069107,48.332918 198.355505,49.4517788 191.442407,46.7532206" id="Fill-4" fill="#7D9B3C"></path>
                <g id="Group-8" transform="translate(156.541640, 56.919090)">
                    <mask id="mask-4" fill="white">
                        <use xlink:href="#path-3"></use>
                    </mask>
                    <g id="Clip-7"></g>
                    <path d="M42.9199278,3.13423827 C43.810842,2.37020521 44.5660867,1.49906472 45.126341,0.521366052 C45.6909894,1.50126179 46.4462342,2.37514863 47.332205,3.13753388 C50.120294,5.53728976 54.1903766,6.83576147 57.5453111,6.83576147 C59.9121109,6.83576147 62.6480193,6.18817343 65.0356913,4.9676979 L65.0356913,8.56376147 C62.5024631,9.60242899 59.8324669,10.1077564 57.5453111,10.1077564 C53.6372628,10.1077564 48.6548445,8.63791278 45.1241439,5.55816198 C41.5775146,8.63956058 36.5637879,10.1077564 32.6590352,10.1077564 C28.7526347,10.1077564 23.7707657,8.63791278 20.2395158,5.55816198 C16.6928865,8.63956058 11.6780613,10.1077564 7.77440712,10.1077564 C5.49219479,10.1077564 2.84416936,9.60627387 0.33181335,8.57639466 L0.33181335,4.97758474 C2.70465505,6.19366612 5.41804348,6.83576147 7.77440712,6.83576147 C11.1342851,6.83576147 15.2351268,5.53454342 18.035849,3.13423827 C18.9240168,2.37020521 19.6803601,1.49906472 20.24391,0.521366052 C20.8074599,1.50126179 21.5621554,2.37514863 22.4481261,3.13753388 C25.2356659,5.53728976 29.306847,6.83576147 32.6590352,6.83576147 C36.0183639,6.83576147 40.1208534,5.53454342 42.9199278,3.13423827 L42.9199278,3.13423827 Z M65.0356913,19.9264875 C62.492027,20.9332974 59.8357625,21.4215975 57.5453111,21.4215975 C53.658135,21.4215975 48.749868,20.0204125 45.1224961,17.059853 C41.480294,20.0204125 36.5423664,21.4215975 32.6590352,21.4215975 C28.7735069,21.4215975 23.8646907,20.0204125 20.2395158,17.059853 C16.5951166,20.0204125 11.6577383,21.4215975 7.77440712,21.4215975 C5.49164552,21.4215975 2.85460547,20.9387901 0.33181335,19.9385714 L0.33181335,16.4314894 C2.6755438,17.4619179 5.22305302,18.032059 7.77440712,18.032059 C12.3053264,18.032059 16.8384427,16.2370482 20.2395158,13.2819814 C23.6334484,16.2397945 28.1358057,18.032059 32.6590352,18.032059 C37.1888559,18.032059 41.7236201,16.2370482 45.1241439,13.2819814 C48.516978,16.2397945 53.0198846,18.032059 57.5453111,18.032059 C60.1076506,18.032059 62.6765813,17.4569744 65.0356913,16.4199547 L65.0356913,19.9264875 Z M65.0356913,14.1739942 C62.492027,15.1824519 59.8357625,15.6696534 57.5453111,15.6696534 C53.658135,15.6696534 48.749868,14.2684684 45.1224961,11.3084582 C41.480294,14.2701162 36.5423664,15.6696534 32.6590352,15.6696534 C28.7735069,15.6696534 23.8646907,14.2684684 20.2395158,11.3084582 C16.5951166,14.2701162 11.6577383,15.6696534 7.77440712,15.6696534 C5.49164552,15.6696534 2.85460547,15.1851982 0.33181335,14.1855288 L0.33181335,10.6800946 C2.6755438,11.7088753 5.22305302,12.2779179 7.77440712,12.2779179 C12.3053264,12.2779179 16.8384427,10.4834563 20.2395158,7.52893884 C23.6334484,10.4873012 28.1358057,12.2779179 32.6590352,12.2779179 C37.1888559,12.2779179 41.7236201,10.4834563 45.1241439,7.52893884 C48.516978,10.4873012 53.0198846,12.2779179 57.5453111,12.2779179 C60.1076506,12.2779179 62.6765813,11.7039318 65.0356913,10.6685599 L65.0356913,14.1739942 Z" id="Fill-6" fill="#007DBA" mask="url(#mask-4)"></path>
                </g>
                <path d="M64.29286,47.2801343 L59.3455949,47.2801343 C59.0204277,44.9682614 56.8063247,43.2106009 54.2665053,43.2106009 C49.6773635,43.2106009 47.9526591,47.1164521 47.9526591,51.1859855 C47.9526591,55.0605284 49.6773635,58.9663797 54.2665053,58.9663797 C57.3929439,58.9663797 59.1506045,56.8176397 59.5416839,53.7587611 L64.4883997,53.7587611 C63.9676928,59.5519003 59.9640717,63.2644089 54.2665053,63.2644089 C47.0727303,63.2644089 42.8411626,57.8909111 42.8411626,51.1859855 C42.8411626,44.2822245 47.0727303,38.9131209 54.2665053,38.9131209 C59.378551,38.9131209 63.6765803,41.9071858 64.29286,47.2801343 L64.29286,47.2801343 Z M65.395792,54.3113256 C65.395792,48.9400249 68.8138924,45.4214083 74.0874233,45.4214083 C79.3928117,45.4214083 82.8125599,48.9400249 82.8125599,54.3113256 C82.8125599,59.6502195 79.3928117,63.1660898 74.0874233,63.1660898 C68.8138924,63.1660898 65.395792,59.6502195 65.395792,54.3113256 L65.395792,54.3113256 Z M70.0173406,54.3113256 C70.0173406,56.9807725 70.9620832,59.6820771 74.0874233,59.6820771 C77.2451702,59.6820771 78.1893635,56.9807725 78.1893635,54.3113256 C78.1893635,51.6083733 77.2451702,48.9081673 74.0874233,48.9081673 C70.9620832,48.9081673 70.0173406,51.6083733 70.0173406,54.3113256 L70.0173406,54.3113256 Z M134.402643,51.8044623 L129.877216,51.8044623 C129.583357,49.9155265 128.379909,48.9081673 126.460214,48.9081673 C123.496359,48.9081673 122.520308,51.9016829 122.520308,54.3783364 C122.520308,56.7857821 123.466149,59.6820771 126.362444,59.6820771 C128.511734,59.6820771 129.747039,58.3149467 130.040349,56.2639766 L134.500412,56.2639766 C133.914343,60.7234909 130.822508,63.1660898 126.394302,63.1660898 C121.317959,63.1660898 117.897661,59.5854057 117.897661,54.5381737 C117.897661,49.297599 121.020804,45.4214083 126.49317,45.4214083 C130.462737,45.4214083 134.109333,47.5064331 134.402643,51.8044623 L134.402643,51.8044623 Z M135.506124,62.7107458 L140.12987,62.7107458 L140.12987,45.8811463 L135.506124,45.8811463 L135.506124,62.7107458 Z M135.505025,43.2743161 L140.127123,43.2743161 L140.127123,39.4662347 L135.505025,39.4662347 L135.505025,43.2743161 Z M141.847433,61.2744076 L141.847433,38.5335761 C142.12811,39.0702118 143.546871,39.287173 144.761305,39.3799995 C145.42592,39.4327293 146.047693,39.4288844 146.471728,39.4288844 L146.478869,58.983407 C146.513473,60.6097922 146.644199,62.0439334 147.066037,62.7255761 C147.066037,62.7255761 145.873025,62.8310357 144.627833,62.7074502 C144.387802,62.6871273 144.158757,62.6552697 143.933008,62.6168209 L143.777564,62.5882589 L143.649035,62.5613447 L143.4502,62.5146568 L143.317277,62.4806022 L143.105259,62.4157884 L142.922902,62.3487776 C142.27092,62.0582144 141.918289,61.7363428 141.847433,61.2744076 L141.847433,61.2744076 Z M101.16693,62.7074502 L101.16693,45.8773015 L105.559433,45.8773015 L105.559433,48.2193841 C106.83154,46.3331947 108.848456,45.420859 110.801107,45.420859 C115.718711,45.420859 116.953468,48.1875265 116.953468,52.355379 L116.953468,59.1064432 L116.962805,60.5147687 C116.962805,62.0439334 117.135276,62.0439334 117.558213,62.7255761 C117.558213,62.7255761 116.363553,62.8310357 115.113966,62.7074502 C113.756723,62.5756257 112.33851,62.1801521 112.33851,61.0997401 L112.332468,53.2012531 C112.332468,50.4362334 111.517903,49.0674553 109.370261,49.0674553 C106.86175,49.0674553 105.789577,50.4664432 105.789577,53.8861915 L105.789577,62.7074502 L101.16693,62.7074502 Z M99.5416432,45.8811463 L99.5663603,58.9872519 C99.6157945,60.3681139 99.7443235,62.0455812 100.16781,62.729421 C100.16781,62.729421 98.5452694,62.8760758 97.1688015,62.6041877 C96.087291,62.4037045 95.1524353,61.9791196 95.1524353,61.1019372 L95.149689,60.3648183 C93.8786807,62.2548526 91.861216,63.1660898 89.9069172,63.1660898 C84.9915097,63.1660898 83.7562039,60.398873 83.7562039,56.2315697 L83.7562039,45.8811463 L88.3777526,45.8811463 L88.3777526,55.3856956 C88.3777526,58.1507153 89.189572,59.5200427 91.3405091,59.5200427 C93.8468231,59.5200427 94.9195453,58.1188577 94.9195453,54.700208 L94.9195453,45.8811463 L99.5416432,45.8811463 Z" id="Fill-9" fill="#002538"></path>
                <path d="M16.1044547,35.9062581 L24.9273612,12.6644933 L30.1679359,12.6644933 L38.8601165,35.9062581 L33.5536295,35.9062581 L31.7976168,30.7288493 L23.1043377,30.7288493 L21.2813142,35.9062581 L16.1044547,35.9062581 Z M27.4671807,18.3939174 L24.4390612,26.9218665 L30.4612455,26.9218665 L27.5319944,18.3939174 L27.4671807,18.3939174 Z M71.6756384,24.9999746 L67.1507611,24.9999746 C66.8580008,23.1132359 65.6529048,22.1047781 63.7326606,22.1047781 C60.7704534,22.1047781 59.7938533,25.0971952 59.7938533,27.5722009 C59.7938533,29.9829421 60.7385958,32.8775893 63.6359893,32.8775893 C65.7836308,32.8775893 67.0216829,31.5126561 67.3122462,29.4611367 L71.7734083,29.4611367 C71.1867891,33.9190032 68.0933065,36.3621513 63.6667484,36.3621513 C58.5904051,36.3621513 55.1712061,32.7814673 55.1712061,27.7347845 C55.1712061,22.4947591 58.2954477,18.6207654 63.7645182,18.6207654 C67.736831,18.6207654 71.3823288,20.7035931 71.6756384,24.9999746 L71.6756384,24.9999746 Z M72.7461635,35.9062581 L72.7461635,12.6644933 L77.3677121,12.6644933 L77.3677121,25.1312498 L83.194906,19.0761093 L88.6634273,19.0761093 L82.314428,25.2619758 L89.3802233,35.9062581 L87.3067331,35.9062581 C83.613449,35.9062581 82.5121648,33.8421055 82.5121648,33.8421055 L79.1583288,28.3878652 L77.3677121,30.1114711 L77.3677121,35.9062581 L72.7461635,35.9062581 Z M106.593212,29.3952244 L106.593212,27.67052 C105.811603,28.3532613 104.18357,28.3878652 102.753273,28.6454723 C101.320231,28.940979 100.017914,29.4292791 100.017914,31.1210273 C100.017914,32.8473795 101.35099,33.2692181 102.850494,33.2692181 C106.462486,33.2692181 106.593212,30.4064285 106.593212,29.3952244 L106.593212,29.3952244 Z M100.536424,24.2524196 L95.9170726,24.2524196 C96.1763275,19.9241805 100.048673,18.6207654 103.825996,18.6207654 C107.178733,18.6207654 111.216958,19.3710668 111.216958,23.4048976 L111.216958,32.1635397 C111.216958,33.6927044 111.38064,35.2240661 111.802479,35.9062581 C111.802479,35.9062581 106.7904,36.3489688 106.7904,34.278225 C105.323852,35.8095868 103.17676,36.3621513 101.124142,36.3621513 C97.9350866,36.3621513 95.3947179,34.7670744 95.3947179,31.3165671 C95.3947179,27.5068379 98.2597045,26.5950515 101.124142,26.2034228 C103.955623,25.783232 106.593212,25.8799034 106.593212,23.9904183 C106.593212,22.0059097 105.226082,21.7131494 103.598049,21.7131494 C101.838741,21.7131494 100.700106,22.4293961 100.536424,24.2524196 L100.536424,24.2524196 Z M144.855834,35.9254825 C143.496394,35.8233185 141.989749,35.4739835 141.852432,34.4539911 C141.847488,34.4045569 141.841446,34.3529256 141.841446,34.2996465 L141.852432,34.1529917 C140.669307,35.707972 138.897365,36.3835728 136.90297,36.3835728 C131.82388,36.3835728 129.350522,32.0196313 129.350522,27.3656758 C129.350522,22.8407985 131.857385,18.6388913 136.80465,18.6388913 C138.791356,18.6388913 140.745106,19.488061 141.785421,21.1474024 L141.852432,12.6837177 L146.475079,12.6837177 L146.475079,31.2819631 L146.477825,32.1827641 C146.477825,33.7124781 146.63986,35.2432905 147.065543,35.9254825 C147.065543,35.9254825 146.011496,36.0161119 144.855834,35.9254825 L144.855834,35.9254825 Z M142.013368,27.4623471 C142.013368,24.7286357 141.036767,22.1245518 138.041604,22.1245518 C135.016231,22.1245518 133.97262,24.7286357 133.97262,27.4942047 C133.97262,30.131794 135.177167,32.8968137 138.041604,32.8968137 C141.10268,32.8968137 142.013368,30.2301132 142.013368,27.4623471 L142.013368,27.4623471 Z M92.6796816,35.9062581 C92.4369048,35.8848366 92.2073104,35.8551761 91.9848565,35.8145302 L91.8283148,35.7865175 L91.7003352,35.7607018 L91.4976549,35.7118169 L91.3669289,35.6783115 L91.1565589,35.6156949 L90.970906,35.546487 L90.8116181,35.4805747 C90.3194731,35.2581208 89.9657439,34.9329536 89.896536,34.472117 L89.896536,12.6644933 L94.5191832,12.6644933 L94.5301686,32.1827641 C94.5620262,33.8075016 94.6922029,35.2432905 95.1156893,35.9254825 C95.1156893,35.9254825 93.9226772,36.0276465 92.6796816,35.9062581 L92.6796816,35.9062581 Z M54.2308577,19.0761093 L54.2368997,32.1827641 C54.2874324,33.5636262 54.4313409,35.2432905 54.8570243,35.9254825 C54.8570243,35.9254825 53.230639,36.0743344 51.8541711,35.8013477 C50.7737592,35.6008646 49.8389035,35.1751812 49.8389035,34.2996465 L49.8356079,33.5636262 C48.5656982,35.4503649 46.5471349,36.3621513 44.5944839,36.3621513 C39.6785271,36.3621513 38.440475,33.5971316 38.440475,29.4292791 L38.440475,19.0761093 L43.0642207,19.0761093 L43.0642207,28.5817572 C43.0642207,31.3489739 43.877688,32.7161043 46.0275265,32.7161043 C48.5332913,32.7161043 49.6076613,31.3165671 49.6076613,27.8984666 L49.6076613,19.0761093 L54.2308577,19.0761093 Z M112.74063,35.9062581 L112.74063,19.0761093 L117.135331,19.0761093 L117.135331,21.4214876 C118.40524,19.530904 120.423804,18.6207654 122.376455,18.6207654 C127.292961,18.6207654 128.530464,21.3857851 128.530464,25.5530884 L128.530464,32.3052511 L128.537604,33.7124781 C128.537604,35.2432905 128.710075,35.2432905 129.135209,35.9254825 C129.135209,35.9254825 127.936704,36.0276465 126.688765,35.9062581 C125.332071,35.773335 123.913309,35.3778614 123.913309,34.2996465 L123.908915,26.4017088 C123.908915,23.6344921 123.0938,22.2657139 120.94506,22.2657139 C118.439844,22.2657139 117.362179,23.6668989 117.362179,27.0828023 L117.362179,35.9062581 L112.74063,35.9062581 Z" id="Fill-11" fill="#002538"></path>
                <polygon id="Fill-13" fill="#002538" points="3.4292506 70.765335 3.4292506 77.7355575 2.36806306 77.7355575 2.36806306 70.765335 0.000164780673 70.765335 0.000164780673 69.8381691 5.78561424 69.8381691 5.78561424 70.765335"></polygon>
                <path d="M9.31741335,74.6075809 C9.2388679,73.2223247 8.24469116,72.9877869 7.80912092,72.9877869 C7.04948201,72.9877869 6.41287934,73.5463934 6.3129124,74.6075809 L9.31741335,74.6075809 Z M10.2890701,76.1158734 C10.1660338,76.4728982 9.69695817,77.8916598 7.90963713,77.8916598 C6.34586853,77.8916598 5.32917177,76.8304722 5.32917177,75.0546858 C5.32917177,73.0657831 6.75891875,72.3066935 7.87613172,72.3066935 C8.84778843,72.3066935 9.87547057,72.8427799 10.1885538,74.1720107 C10.2890701,74.6185663 10.2890701,75.0211804 10.2890701,75.2441836 L6.29039237,75.2441836 C6.26787235,76.1268587 6.73639873,77.2215517 7.98763331,77.2215517 C8.78132689,77.2215517 9.22788252,76.6964506 9.38442416,75.9928371 L10.2890701,76.1158734 Z" id="Fill-15" fill="#002538"></path>
                <polygon id="Fill-17" fill="#002538" points="16.2052455 73.8593119 15.0880325 74.9875102 15.0880325 77.7355026 14.0378304 77.7355026 14.0378304 69.8490996 15.0880325 69.8490996 15.0880325 73.7027702 18.8302017 69.8490996 20.125927 69.8490996 16.9308298 73.1112076 20.2599486 77.7355026 18.986194 77.7355026"></polygon>
                <path d="M22.5929134,75.4008351 C21.6102713,75.6128529 21.4427443,75.9814123 21.4427443,76.3499718 C21.4427443,76.7745566 21.7777983,77.1321307 22.436921,77.1321307 C23.0510037,77.1321307 23.5755555,76.8866075 23.8326134,76.3389864 C23.966635,76.0484231 23.9781696,75.9253869 23.9781696,75.1553119 C23.6315809,75.210788 23.1625053,75.2777989 22.5929134,75.4008351 L22.5929134,75.4008351 Z M23.966635,74.5851708 L23.966635,74.4511491 C23.966635,73.9040773 23.966635,72.9878968 22.7829605,72.9878968 C21.6547621,72.9878968 21.6547621,73.8145465 21.6547621,74.0935751 L20.7160615,74.0380989 C20.7385816,73.8480519 20.7611016,73.5574886 20.9286286,73.2449546 C21.2417119,72.6638281 21.8557945,72.306254 22.7494551,72.306254 C23.2410507,72.306254 23.8776534,72.4292903 24.2907036,72.7533589 C24.8718301,73.2224346 24.8602955,73.8260811 24.8602955,74.5296946 L24.8602955,76.2384702 C24.8602955,76.7410512 24.8718301,76.9981091 25.2403896,76.9981091 C25.3524404,76.9981091 25.4524074,76.9755891 25.5309528,76.9426329 L25.5309528,77.7127079 C25.3859458,77.7467626 25.2288549,77.8022388 24.9717971,77.8022388 C24.5587469,77.8022388 24.1451474,77.6682172 24.0561658,77.0206291 C23.7881226,77.2996577 23.2520361,77.880235 22.246874,77.880235 C21.2191919,77.880235 20.4590037,77.2661523 20.4590037,76.3724918 C20.4590037,76.0934632 20.5375491,75.8144346 20.6940908,75.5793475 C20.9956394,75.1327919 21.5542459,74.7752178 23.1289999,74.6521816 L23.966635,74.5851708 Z" id="Fill-19" fill="#002538"></path>
                <path d="M26.1325671,72.4741655 L27.0152422,72.4741655 L27.0152422,75.4786665 C27.0152422,76.0262876 27.0152422,76.0713277 27.0377622,76.2048 C27.1267438,76.8864427 27.6743649,77.0314497 28.0879644,77.0314497 C28.6350362,77.0314497 29.0480865,76.8078973 29.2716389,76.5288687 C29.5951583,76.1493238 29.5951583,75.7357243 29.5951583,75.1101071 L29.5951583,72.4741655 L30.4778334,72.4741655 L30.4778334,77.7350632 L29.5951583,77.7350632 L29.5951583,76.9309335 C29.4281805,77.154486 28.8920941,77.8690848 27.7974011,77.8690848 C27.0602823,77.8690848 26.6807374,77.5340308 26.5126612,77.3329983 C26.1325671,76.8974281 26.1325671,76.4393378 26.1325671,75.557212 L26.1325671,72.4741655 Z" id="Fill-21" fill="#002538"></path>
                <path d="M32.5795011,72.4741655 L32.5795011,73.2447898 C33.0710968,72.3846347 33.9081826,72.3066385 34.2212659,72.3066385 C34.8919232,72.3066385 35.6960529,72.6416926 35.9531107,73.5128331 C36.0420923,73.8259163 36.0420923,74.1494357 36.0420923,74.5965406 L36.0420923,77.7350632 L35.1594172,77.7350632 L35.1594172,74.7420969 C35.1594172,74.2054612 35.1594172,74.0489195 35.103941,73.8704071 C34.9468501,73.3678261 34.4558037,73.1442736 33.9751934,73.1442736 C33.5846632,73.1442736 33.2496092,73.2673099 32.9700313,73.5463385 C32.5795011,73.9374179 32.5795011,74.3394828 32.5795011,74.7305622 L32.5795011,77.7350632 L31.6852913,77.7350632 L31.6852913,72.4741655 L32.5795011,72.4741655 Z" id="Fill-23" fill="#002538"></path>
                <mask id="mask-6" fill="white">
                    <use xlink:href="#path-5"></use>
                </mask>
                <g id="Clip-26"></g>
                <path d="M37.2585582,77.7352829 L38.1187133,77.7352829 L38.1187133,72.4743853 L37.2585582,72.4743853 L37.2585582,77.7352829 Z M37.2585582,70.876562 L38.1187133,70.876562 L38.1187133,69.8488798 L37.2585582,69.8488798 L37.2585582,70.876562 Z" id="Fill-25" fill="#002538" mask="url(#mask-6)"></path>
                <path d="M39.2909081,69.8381142 L40.1950047,69.8381142 L40.1950047,72.9991568 C40.7541605,72.4070449 41.2902469,72.3065287 41.792828,72.3065287 C42.9545317,72.3065287 43.412622,72.954666 43.5686144,73.4682324 C43.6696798,73.8032865 43.6696798,74.1493259 43.6696798,74.674427 L43.6696798,77.7355026 L42.7644847,77.7355026 L42.7644847,74.9540048 C42.7644847,74.2613767 42.7644847,73.8593119 42.5524669,73.5352432 C42.3289144,73.2117238 41.9718896,73.0886876 41.6247517,73.0886876 C41.0551598,73.0886876 40.4410772,73.4012216 40.2625648,74.216886 C40.1950047,74.5068999 40.1950047,74.7864778 40.1950047,75.1775573 L40.1950047,77.7355026 L39.2909081,77.7355026 L39.2909081,69.8381142 Z" id="Fill-27" fill="#002538" mask="url(#mask-6)"></path>
                <path d="M48.553779,74.6075809 C48.4752336,73.2223247 47.4810568,72.9877869 47.0454866,72.9877869 C46.2858477,72.9877869 45.649245,73.5463934 45.5492781,74.6075809 L48.553779,74.6075809 Z M49.5254357,76.1158734 C49.4023995,76.4728982 48.9333238,77.8916598 47.1460028,77.8916598 C45.5822342,77.8916598 44.5655374,76.8304722 44.5655374,75.0546858 C44.5655374,73.0657831 45.9952844,72.3066935 47.1124974,72.3066935 C48.0841541,72.3066935 49.1118362,72.8427799 49.4249195,74.1720107 C49.5254357,74.6185663 49.5254357,75.0211804 49.5254357,75.2441836 L45.526758,75.2441836 C45.504238,76.1268587 45.9727644,77.2215517 47.223999,77.2215517 C48.0176926,77.2215517 48.4642482,76.6964506 48.6207898,75.9928371 L49.5254357,76.1158734 Z" id="Fill-28" fill="#002538" mask="url(#mask-6)"></path>
                <path d="M51.3390118,72.4741655 L51.3390118,73.4348369 C51.8410436,72.4406601 52.7907296,72.4181401 53.1483036,72.4071547 L53.1483036,73.3678261 C53.036802,73.3568407 52.9247512,73.345306 52.7797442,73.345306 C52.2656285,73.345306 51.8185236,73.5463385 51.562015,73.9709233 C51.3274772,74.3620028 51.3390118,74.8200931 51.3390118,75.3001541 L51.3390118,77.7350632 L50.444802,77.7350632 L50.444802,72.4741655 L51.3390118,72.4741655 Z" id="Fill-29" fill="#002538" mask="url(#mask-6)"></path>
                <path d="M55.5097755,75.4008351 C54.5271334,75.6128529 54.3596064,75.9814123 54.3596064,76.3499718 C54.3596064,76.7745566 54.6946604,77.1321307 55.3537831,77.1321307 C55.9678657,77.1321307 56.4924175,76.8866075 56.7494754,76.3389864 C56.883497,76.0484231 56.8950317,75.9253869 56.8950317,75.1553119 C56.548443,75.210788 56.0793673,75.2777989 55.5097755,75.4008351 L55.5097755,75.4008351 Z M56.883497,74.5851708 L56.883497,74.4511491 C56.883497,73.9040773 56.883497,72.9878968 55.6998225,72.9878968 C54.5716242,72.9878968 54.5716242,73.8145465 54.5716242,74.0935751 L53.6329236,74.0380989 C53.6554436,73.8480519 53.6779636,73.5574886 53.8454907,73.2449546 C54.1585739,72.6638281 54.7726566,72.306254 55.6663171,72.306254 C56.1579128,72.306254 56.7945154,72.4292903 57.2075657,72.7533589 C57.7886922,73.2224346 57.7771575,73.8260811 57.7771575,74.5296946 L57.7771575,76.2384702 C57.7771575,76.7410512 57.7886922,76.9981091 58.1572516,76.9981091 C58.2693025,76.9981091 58.3692694,76.9755891 58.4478149,76.9426329 L58.4478149,77.7127079 C58.3028079,77.7467626 58.145717,77.8022388 57.8886591,77.8022388 C57.4761582,77.8022388 57.0620094,77.6682172 56.9730278,77.0206291 C56.7049846,77.2996577 56.1688982,77.880235 55.163736,77.880235 C54.1360539,77.880235 53.3769643,77.2661523 53.3769643,76.3724918 C53.3769643,76.0934632 53.4544112,75.8144346 53.6109528,75.5793475 C53.9125015,75.1327919 54.4711079,74.7752178 56.0458619,74.6521816 L56.883497,74.5851708 Z" id="Fill-30" fill="#002538" mask="url(#mask-6)"></path>
                <path d="M65.7608361,74.3618929 C65.5598037,73.3232254 64.878161,73.0211275 64.2750637,73.0211275 C63.0798545,73.0211275 62.5997935,73.9482935 62.5997935,75.1550373 C62.5997935,76.2607156 63.0578838,77.1768961 64.2086022,77.1768961 C65.6938253,77.1768961 65.8058762,75.6350983 65.8168615,75.0990118 C65.8278469,74.7639578 65.7943415,74.5184346 65.7608361,74.3618929 M64.2190383,77.891495 C62.3987611,77.891495 61.6281368,76.5293081 61.6281368,75.1440519 C61.6281368,73.9708135 62.208714,72.3065287 64.2525437,72.3065287 C65.9953739,72.3065287 66.7995036,73.6582795 66.7885182,75.0990118 C66.7775329,76.6962858 65.8278469,77.891495 64.2190383,77.891495" id="Fill-31" fill="#002538" mask="url(#mask-6)"></path>
                <polygon id="Fill-32" fill="#002538" mask="url(#mask-6)" points="73.3533254 70.765335 73.3533254 77.7355575 72.2921378 77.7355575 72.2921378 70.765335 69.9242395 70.765335 69.9242395 69.8381691 75.709689 69.8381691 75.709689 70.765335"></polygon>
                <path d="M78.7453335,71.0197015 C78.7453335,71.0197015 78.6519578,71.7123296 78.2394568,71.7123296 L76.8756221,71.7123296 C76.3999552,71.7123296 76.6020862,71.0197015 76.6020862,71.0197015 L78.7453335,71.0197015 Z M77.3600773,75.4006703 C76.376886,75.6132374 76.2093589,75.9812476 76.2093589,76.3503563 C76.2093589,76.7749411 76.5449622,77.1319659 77.2035357,77.1319659 C77.8176183,77.1319659 78.3427194,76.8864427 78.599228,76.3388216 C78.7337989,76.0488076 78.7453335,75.9257714 78.7453335,75.1551471 C78.3981955,75.2106233 77.9296692,75.2776341 77.3600773,75.4006703 L77.3600773,75.4006703 Z M78.7337989,74.5855552 L78.7337989,74.4509844 C78.7337989,73.9039125 78.7337989,72.987732 77.5501243,72.987732 C76.4213767,72.987732 76.4213767,73.8143817 76.4213767,74.0939596 L75.4832254,74.0379341 C75.5057455,73.8478871 75.5282655,73.5578731 75.6957925,73.2447898 C76.0083265,72.6636633 76.6224092,72.3066385 77.5166189,72.3066385 C78.0082146,72.3066385 78.644268,72.4296748 79.0573182,72.7537434 C79.638994,73.2222698 79.6269101,73.8259163 79.6269101,74.5295298 L79.6269101,76.2383054 C79.6269101,76.7408865 79.638994,76.9979443 80.0075535,76.9979443 C80.1190551,76.9979443 80.2195713,76.9759736 80.2975675,76.9424682 L80.2975675,77.7125432 C80.1525605,77.7465978 79.9960188,77.8026233 79.738961,77.8026233 C79.3259107,77.8026233 78.9123113,77.6680524 78.8227804,77.0204643 C78.5552865,77.3000422 78.0186507,77.8806195 77.0134886,77.8806195 C75.9858065,77.8806195 75.2267168,77.2659875 75.2267168,76.3728763 C75.2267168,76.0932984 75.304713,75.8142698 75.4612547,75.5791827 C75.762254,75.1326271 76.3214098,74.775053 77.8961638,74.6520168 L78.7337989,74.5855552 Z" id="Fill-33" fill="#002538" mask="url(#mask-6)"></path>
                <path d="M81.8679273,72.4741655 L81.8679273,73.177779 C82.5050792,72.4296748 83.052151,72.3066385 83.4426812,72.3066385 C84.3028364,72.3066385 84.6274543,72.865245 84.8724282,73.2782952 C85.3305185,72.820205 85.8446342,72.3066385 86.6267931,72.3066385 C87.2743812,72.3066385 87.8555077,72.7087034 88.0675255,73.2222698 C88.2015471,73.5463385 88.2125325,73.9039125 88.2125325,74.4290136 L88.2125325,77.7240778 L87.3419413,77.7240778 L87.3419413,74.6415807 C87.3419413,74.1609704 87.3419413,73.9819087 87.2969012,73.8033963 C87.1288249,73.200299 86.5707677,73.1442736 86.3807207,73.1442736 C86.0121612,73.1442736 85.6100964,73.322786 85.3530385,73.5913785 C85.0630245,73.8929271 85.0405045,74.1384503 85.0405045,74.775053 L85.0405045,77.7240778 L84.169364,77.7240778 L84.169364,74.3394828 C84.169364,74.1384503 84.169364,73.7698909 83.9683316,73.5018477 C83.8447461,73.3343207 83.5882375,73.1442736 83.1977073,73.1442736 C82.862104,73.1442736 82.4935446,73.2898299 82.2139667,73.5353531 C81.8679273,73.8478871 81.8679273,74.1384503 81.8679273,74.607526 L81.8679273,77.7350632 L80.9967868,77.7350632 L80.9967868,72.4741655 L81.8679273,72.4741655 Z" id="Fill-34" fill="#002538" mask="url(#mask-6)"></path>
                <path d="M91.2016539,75.4008351 C90.2190118,75.6128529 90.0514848,75.9814123 90.0514848,76.3499718 C90.0514848,76.7745566 90.3865388,77.1321307 91.0456615,77.1321307 C91.6597442,77.1321307 92.184296,76.8866075 92.4413538,76.3389864 C92.5753755,76.0484231 92.5869101,75.9253869 92.5869101,75.1553119 C92.2403214,75.210788 91.7712458,75.2777989 91.2016539,75.4008351 L91.2016539,75.4008351 Z M92.5753755,74.5851708 L92.5753755,74.4511491 C92.5753755,73.9040773 92.5753755,72.9878968 91.391701,72.9878968 C90.2635026,72.9878968 90.2635026,73.8145465 90.2635026,74.0935751 L89.324802,74.0380989 C89.3473221,73.8480519 89.3698421,73.5574886 89.5373691,73.2449546 C89.8504524,72.6638281 90.464535,72.306254 91.3581955,72.306254 C91.8497912,72.306254 92.4863939,72.4292903 92.8994441,72.7533589 C93.4805706,73.2224346 93.469036,73.8260811 93.469036,74.5296946 L93.469036,76.2384702 C93.469036,76.7410512 93.4805706,76.9981091 93.8491301,76.9981091 C93.9611809,76.9981091 94.0611479,76.9755891 94.1396933,76.9426329 L94.1396933,77.7127079 C93.9946863,77.7467626 93.8375954,77.8022388 93.5805376,77.8022388 C93.1680366,77.8022388 92.7538879,77.6682172 92.6649063,77.0206291 C92.3968631,77.2996577 91.8607766,77.880235 90.8556145,77.880235 C89.8279324,77.880235 89.0677442,77.2661523 89.0677442,76.3724918 C89.0677442,76.0934632 89.1462896,75.8144346 89.3028313,75.5793475 C89.6043799,75.1327919 90.1629864,74.7752178 91.7377404,74.6521816 L92.5753755,74.5851708 Z" id="Fill-35" fill="#002538" mask="url(#mask-6)"></path>
                <polygon id="Fill-36" fill="#002538" mask="url(#mask-6)" points="96.9507418 74.5517203 99.3521455 77.7352829 98.2354818 77.7352829 96.3476445 75.210843 95.7110418 75.880951 95.7110418 77.7352829 94.8058467 77.7352829 94.8058467 69.8488798 95.7110418 69.8488798 95.7110418 74.7082619 97.8108969 72.4743853 98.9061391 72.4743853"></polygon>
                <path d="M99.8614825,77.7352829 L100.721638,77.7352829 L100.721638,72.4743853 L99.8614825,72.4743853 L99.8614825,77.7352829 Z M99.8614825,70.876562 L100.721638,70.876562 L100.721638,69.8488798 L99.8614825,69.8488798 L99.8614825,70.876562 Z" id="Fill-37" fill="#002538" mask="url(#mask-6)"></path>
                <polygon id="Fill-38" fill="#002538" mask="url(#mask-6)" points="112.313683 69.8490446 112.313683 77.7354477 111.275016 77.7354477 111.420023 71.12225 108.929638 77.7354477 108.113424 77.7354477 105.66753 71.2233154 105.77958 77.7354477 104.751898 77.7354477 104.751898 69.8490446 106.1031 69.8490446 108.527573 76.3166861 110.962482 69.8490446"></polygon>
                <path d="M115.460829,75.4008351 C114.478187,75.6128529 114.31066,75.9814123 114.31066,76.3499718 C114.31066,76.7745566 114.645714,77.1321307 115.304837,77.1321307 C115.91892,77.1321307 116.443472,76.8866075 116.700529,76.3389864 C116.834551,76.0484231 116.846086,75.9253869 116.846086,75.1553119 C116.499497,75.210788 116.030421,75.2777989 115.460829,75.4008351 L115.460829,75.4008351 Z M116.834551,74.5851708 L116.834551,74.4511491 C116.834551,73.9040773 116.834551,72.9878968 115.650877,72.9878968 C114.522678,72.9878968 114.522678,73.8145465 114.522678,74.0935751 L113.583978,74.0380989 C113.606498,73.8480519 113.629018,73.5574886 113.796545,73.2449546 C114.109628,72.6638281 114.723711,72.306254 115.617371,72.306254 C116.108967,72.306254 116.745569,72.4292903 117.15862,72.7533589 C117.739746,73.2224346 117.728212,73.8260811 117.728212,74.5296946 L117.728212,76.2384702 C117.728212,76.7410512 117.739746,76.9981091 118.108306,76.9981091 C118.220357,76.9981091 118.320323,76.9755891 118.398869,76.9426329 L118.398869,77.7127079 C118.253862,77.7467626 118.096771,77.8022388 117.839713,77.8022388 C117.426663,77.8022388 117.013063,77.6682172 116.924082,77.0206291 C116.656039,77.2996577 116.119952,77.880235 115.11479,77.880235 C114.087108,77.880235 113.328018,77.2661523 113.328018,76.3724918 C113.328018,76.0934632 113.405465,75.8144346 113.562007,75.5793475 C113.863555,75.1327919 114.422162,74.7752178 115.996916,74.6521816 L116.834551,74.5851708 Z" id="Fill-39" fill="#002538" mask="url(#mask-6)"></path>
                <polygon id="Fill-40" fill="#002538" mask="url(#mask-6)" points="121.209258 74.5517203 123.610662 77.7352829 122.493998 77.7352829 120.606161 75.210843 119.969558 75.880951 119.969558 77.7352829 119.064363 77.7352829 119.064363 69.8488798 119.969558 69.8488798 119.969558 74.7082619 122.069413 72.4743853 123.164656 72.4743853"></polygon>
                <path d="M125.794335,75.4008351 C124.811693,75.6128529 124.644166,75.9814123 124.644166,76.3499718 C124.644166,76.7745566 124.97922,77.1321307 125.638343,77.1321307 C126.252426,77.1321307 126.776977,76.8866075 127.034035,76.3389864 C127.168057,76.0484231 127.179592,75.9253869 127.179592,75.1553119 C126.833003,75.210788 126.363927,75.2777989 125.794335,75.4008351 L125.794335,75.4008351 Z M127.168057,74.5851708 L127.168057,74.4511491 C127.168057,73.9040773 127.168057,72.9878968 125.984382,72.9878968 C124.856184,72.9878968 124.856184,73.8145465 124.856184,74.0935751 L123.917484,74.0380989 C123.940004,73.8480519 123.962524,73.5574886 124.130051,73.2449546 C124.443134,72.6638281 125.057217,72.306254 125.950877,72.306254 C126.442473,72.306254 127.079075,72.4292903 127.492126,72.7533589 C128.073252,73.2224346 128.061717,73.8260811 128.061717,74.5296946 L128.061717,76.2384702 C128.061717,76.7410512 128.073252,76.9981091 128.441812,76.9981091 C128.553862,76.9981091 128.653829,76.9755891 128.732375,76.9426329 L128.732375,77.7127079 C128.587368,77.7467626 128.430277,77.8022388 128.173219,77.8022388 C127.760718,77.8022388 127.346569,77.6682172 127.257588,77.0206291 C126.989545,77.2996577 126.453458,77.880235 125.448296,77.880235 C124.420614,77.880235 123.660426,77.2661523 123.660426,76.3724918 C123.660426,76.0934632 123.738971,75.8144346 123.895513,75.5793475 C124.197061,75.1327919 124.755668,74.7752178 126.330422,74.6521816 L127.168057,74.5851708 Z" id="Fill-41" fill="#002538" mask="url(#mask-6)"></path>
                <path d="M134.994645,72.4741655 L134.994645,73.4348369 C135.496676,72.4406601 136.446362,72.4181401 136.803936,72.4071547 L136.803936,73.3678261 C136.692435,73.3568407 136.580384,73.345306 136.435377,73.345306 C135.921261,73.345306 135.474156,73.5463385 135.217648,73.9709233 C134.98311,74.3620028 134.994645,74.8200931 134.994645,75.3001541 L134.994645,77.7350632 L134.100435,77.7350632 L134.100435,72.4741655 L134.994645,72.4741655 Z" id="Fill-42" fill="#002538" mask="url(#mask-6)"></path>
                <path d="M139.166067,75.4008351 C138.183425,75.6128529 138.015898,75.9814123 138.015898,76.3499718 C138.015898,76.7745566 138.350952,77.1321307 139.010075,77.1321307 C139.624158,77.1321307 140.148709,76.8866075 140.405767,76.3389864 C140.539789,76.0484231 140.551324,75.9253869 140.551324,75.1553119 C140.204735,75.210788 139.735659,75.2777989 139.166067,75.4008351 L139.166067,75.4008351 Z M140.539789,74.5851708 L140.539789,74.4511491 C140.539789,73.9040773 140.539789,72.9878968 139.356114,72.9878968 C138.227916,72.9878968 138.227916,73.8145465 138.227916,74.0935751 L137.289216,74.0380989 C137.311736,73.8480519 137.334256,73.5574886 137.501783,73.2449546 C137.814866,72.6638281 138.428949,72.306254 139.322609,72.306254 C139.814205,72.306254 140.450807,72.4292903 140.863858,72.7533589 C141.444984,73.2224346 141.433449,73.8260811 141.433449,74.5296946 L141.433449,76.2384702 C141.433449,76.7410512 141.444984,76.9981091 141.813544,76.9981091 C141.925594,76.9981091 142.025561,76.9755891 142.104107,76.9426329 L142.104107,77.7127079 C141.9591,77.7467626 141.802009,77.8022388 141.544951,77.8022388 C141.13245,77.8022388 140.718301,77.6682172 140.62932,77.0206291 C140.361277,77.2996577 139.82519,77.880235 138.820028,77.880235 C137.792346,77.880235 137.033256,77.2661523 137.033256,76.3724918 C137.033256,76.0934632 137.110703,75.8144346 137.267245,75.5793475 C137.568793,75.1327919 138.1274,74.7752178 139.702154,74.6521816 L140.539789,74.5851708 Z" id="Fill-43" fill="#002538" mask="url(#mask-6)"></path>
                <path d="M142.705776,72.4741655 L143.588451,72.4741655 L143.588451,75.4786665 C143.588451,76.0262876 143.588451,76.0713277 143.610971,76.2048 C143.699953,76.8864427 144.247574,77.0314497 144.661173,77.0314497 C145.208245,77.0314497 145.621295,76.8078973 145.844848,76.5288687 C146.168367,76.1493238 146.168367,75.7357243 146.168367,75.1101071 L146.168367,72.4741655 L147.051042,72.4741655 L147.051042,77.7350632 L146.168367,77.7350632 L146.168367,76.9309335 C146.001389,77.154486 145.465303,77.8690848 144.37061,77.8690848 C143.633491,77.8690848 143.253946,77.5340308 143.08587,77.3329983 C142.705776,76.8974281 142.705776,76.4393378 142.705776,75.557212 L142.705776,72.4741655 Z" id="Fill-44" fill="#002538" mask="url(#mask-6)"></path>
                <path d="M129.096101,72.4741655 L129.978776,72.4741655 L129.978776,75.4786665 C129.978776,76.0262876 129.978776,76.0713277 130.001296,76.2048 C130.090277,76.8864427 130.637899,77.0314497 131.051498,77.0314497 C131.59857,77.0314497 132.01162,76.8078973 132.235173,76.5288687 C132.558692,76.1493238 132.558692,75.7357243 132.558692,75.1101071 L132.558692,72.4741655 L133.441367,72.4741655 L133.441367,77.7350632 L132.558692,77.7350632 L132.558692,76.9309335 C132.391714,77.154486 131.855628,77.8690848 130.760935,77.8690848 C130.023816,77.8690848 129.644271,77.5340308 129.476195,77.3329983 C129.096101,76.8974281 129.096101,76.4393378 129.096101,75.557212 L129.096101,72.4741655 Z" id="Fill-45" fill="#002538" mask="url(#mask-6)"></path>
            </g>
        </g>
    </g>
</svg>