<svg width="368px" height="163px" viewBox="0 0 368 163" version="1.1" xmlns="http://www.w3.org/2000/svg" xmlns:xlink="http://www.w3.org/1999/xlink" preserveAspectRatio="none">
    <defs>
        <path d="M0.275,110.1264 C-0.039,98.7674 -0.5,87.5194 -1.523,75.8064 C-1.857,71.9914 -2.238,67.9964 -1.809,64.2054 C-1.532,61.7624 -1.627,58.8024 0.859,57.2074 C1.551,56.7624 1.248,55.7944 1.148,55.0294 C0.532,50.3474 1.03,45.7394 -0.21,41.0644 C-0.671,39.3264 -0.297,37.5064 -0.126,35.7854 C0.322,31.2804 0.094,26.9524 -0.497,22.7544 C-0.639,21.7444 -0.366,20.7414 -0.291,19.7554 C-0.192,18.4494 -0.089,17.1894 -0.398,15.8594 C-0.843,13.9384 -0.616,12.0494 0.354,10.2624 C1.305,8.5134 2.494,7.2774 5.692,7.2254 C7.025,7.2034 8.357,6.7434 9.414,6.2444 C11.781,5.1274 14.566,5.1614 17.787,5.5004 C42.312,6.1744 68.515,4.7914 92.919,4.3704 C95.771,4.3894 98.611,4.5264 101.185,3.4624 C102.294,3.0044 103.602,2.7294 104.673,3.4074 C106.638,4.6514 108.982,4.4084 111.316,4.3974 C118.026,4.3634 124.789,4.2804 131.597,4.2734 C139.552,4.2654 147.566,3.8854 155.44,4.2044 C174.734,5.0734 193.937,4.5214 213.142,4.7544 C219.932,4.8144 226.777,4.2844 233.481,4.6034 C246.532,5.2244 259.618,4.0134 272.615,4.7974 C283.151,5.5784 294.389,4.9634 306.188,4.8294 C318.768,4.6864 331.263,3.6364 343.215,4.7004 C346.812,5.0144 350.417,5.3544 353.886,5.4024 C359.858,5.4354 361.81,8.3604 362.647,11.9084 C363.816,16.5154 364.023,21.1614 364.079,25.7004 C364.062,34.3034 362.928,42.7324 362.969,51.0014 C363.049,67.3324 362.477,83.7354 363.471,100.2984 C363.638,104.7414 364.231,109.3474 363.707,113.9144 C363.087,119.2104 363.826,124.5674 362.581,129.7664 C362.115,131.7124 362.618,133.7944 362.706,135.7934 C362.871,139.5434 363.03,143.2584 363.178,146.9394 C363.223,148.0324 363.124,149.1024 364.052,150.1544 C366.453,152.8734 365.287,155.4634 363.619,157.8574 C362.002,160.1784 359.614,160.7634 355.473,159.8414 C353.584,159.4214 351.727,159.2924 350.703,160.0354 C348.648,161.5264 346.013,161.2444 343.397,160.9684 C339.954,160.6044 336.864,161.4784 333.278,161.1064 C323.187,160.0604 313.245,160.3744 303.686,160.7684 C299.246,160.9394 294.795,161.1464 290.332,161.0954 C285.865,161.0444 281.453,161.5524 276.989,161.5764 C269.294,161.5764 261.579,161.2594 253.872,161.1924 C202.419,160.7474 151.132,160.1474 98.856,161.0624 C94.097,161.1464 89.069,160.9124 84.158,160.1794 C83.593,160.0954 82.94,159.7644 82.528,159.8714 C77.296,161.2374 71.906,160.4814 66.651,161.1634 C61.472,161.8344 56.191,162.1074 51.144,161.9694 C42.791,161.7424 34.765,162.1504 27.049,162.3774 C23.204,162.4904 19.53,162.0334 15.908,161.4464 C13.97,161.1324 12.076,160.9434 10.099,160.8514 C6.374,160.6784 4.373,159.2664 4.14,156.5634 C4.068,155.7144 4.158,154.8554 4.198,153.9964 C4.235,153.2084 3.954,152.4794 2.932,152.0864 C-0.833,150.6374 -0.967,148.2284 -0.867,145.6534 C-0.408,133.8464 0.018,121.9554 0.142,110.1254 C0.187,110.1264 0.231,110.1264 0.275,110.1264" id="path-1"></path>
        <filter x="-50%" y="-50%" width="200%" height="200%" filterUnits="objectBoundingBox" id="filter-2">
            <feOffset dx="0" dy="3" in="SourceAlpha" result="shadowOffsetOuter1"></feOffset>
            <feColorMatrix values="0 0 0 0 0   0 0 0 0 0.188235294   0 0 0 0 0.294117647  0 0 0 0.195652174 0" type="matrix" in="shadowOffsetOuter1"></feColorMatrix>
        </filter>
    </defs>
    <g id="Symbols" stroke="none" stroke-width="1" fill="none" fill-rule="evenodd">
        <g id="candidate" transform="translate(2.000000, -3.000000)">
            <g id="Fill-1">
                <use fill="black" fill-opacity="1" filter="url(#filter-2)" xlink:href="#path-1"></use>
                <use fill="#FFFFFF" fill-rule="evenodd" xlink:href="#path-1"></use>
            </g>
        </g>
    </g>
</svg>