<svg width="368px" height="163px" viewBox="0 0 368 163" version="1.1" xmlns="http://www.w3.org/2000/svg" xmlns:xlink="http://www.w3.org/1999/xlink" preserveAspectRatio="none">
    <defs>
        <path d="M363.142565,55.2684444 C363.456565,66.6274444 363.917565,77.8754444 364.940565,89.5884444 C365.274565,93.4034444 365.655565,97.3984444 365.226565,101.189444 C364.949565,103.632444 365.044565,106.592444 362.558565,108.187444 C361.866565,108.632444 362.169565,109.600444 362.269565,110.365444 C362.885565,115.047444 362.387565,119.655444 363.627565,124.330444 C364.088565,126.068444 363.714565,127.888444 363.543565,129.609444 C363.095565,134.114444 363.323565,138.442444 363.914565,142.640444 C364.056565,143.650444 363.783565,144.653444 363.708565,145.639444 C363.609565,146.945444 363.506565,148.205444 363.815565,149.535444 C364.260565,151.456444 364.033565,153.345444 363.063565,155.132444 C362.112565,156.881444 360.923565,158.117444 357.725565,158.169444 C356.392565,158.191444 355.060565,158.651444 354.003565,159.150444 C351.636565,160.267444 348.851565,160.233444 345.630565,159.894444 C321.105565,159.220444 294.902565,160.603444 270.498565,161.024444 C267.646565,161.005444 264.806565,160.868444 262.232565,161.932444 C261.123565,162.390444 259.815565,162.665444 258.744565,161.987444 C256.779565,160.743444 254.435565,160.986444 252.101565,160.997444 C245.391565,161.031444 238.628565,161.114444 231.820565,161.121444 C223.865565,161.129444 215.851565,161.509444 207.977565,161.190444 C188.683565,160.321444 169.480565,160.873444 150.275565,160.640444 C143.485565,160.580444 136.640565,161.110444 129.936565,160.791444 C116.885565,160.170444 103.799565,161.381444 90.8025654,160.597444 C80.2665654,159.816444 69.0285654,160.431444 57.2295654,160.565444 C44.6495654,160.708444 32.1545654,161.758444 20.2025654,160.694444 C16.6055654,160.380444 13.0005654,160.040444 9.53156544,159.992444 C3.55956544,159.959444 1.60756544,157.034444 0.770565439,153.486444 C-0.398434561,148.879444 -0.605434561,144.233444 -0.661434561,139.694444 C-0.644434561,131.091444 0.489565439,122.662444 0.448565439,114.393444 C0.368565439,98.0624444 0.940565439,81.6594444 -0.053434561,65.0964444 C-0.220434561,60.6534444 -0.813434561,56.0474444 -0.289434561,51.4804444 C0.330565439,46.1844444 -0.408434561,40.8274444 0.836565439,35.6284444 C1.30256544,33.6824444 0.799565439,31.6004444 0.711565439,29.6014444 C0.546565439,25.8514444 0.387565439,22.1364444 0.239565439,18.4554444 C0.194565439,17.3624444 0.293565439,16.2924444 -0.634434561,15.2404444 C-3.03543456,12.5214444 -1.86943456,9.93144445 -0.201434561,7.53744445 C1.41556544,5.21644445 3.80356544,4.63144445 7.94456544,5.55344445 C9.83356544,5.97344445 11.6905654,6.10244445 12.7145654,5.35944445 C14.7695654,3.86844445 17.4045654,4.15044445 20.0205654,4.42644445 C23.4635654,4.79044445 26.5535654,3.91644445 30.1395654,4.28844445 C40.2305654,5.33444445 50.1725654,5.02044445 59.7315654,4.62644445 C64.1715654,4.45544445 68.6225654,4.24844445 73.0855654,4.29944445 C77.5525654,4.35044445 81.9645654,3.84244445 86.4285654,3.81844445 C94.1235654,3.81844445 101.838565,4.13544445 109.545565,4.20244445 C160.998565,4.64744445 212.285565,5.24744445 264.561565,4.33244445 C269.320565,4.24844445 274.348565,4.48244445 279.259565,5.21544445 C279.824565,5.29944445 280.477565,5.63044445 280.889565,5.52344445 C286.121565,4.15744445 291.511565,4.91344445 296.766565,4.23144445 C301.945565,3.56044445 307.226565,3.28744445 312.273565,3.42544445 C320.626565,3.65244445 328.652565,3.24444445 336.368565,3.01744445 C340.213565,2.90444445 343.887565,3.36144445 347.509565,3.94844445 C349.447565,4.26244445 351.341565,4.45144445 353.318565,4.54344445 C357.043565,4.71644445 359.044565,6.12844445 359.277565,8.83144445 C359.349565,9.68044445 359.259565,10.5394444 359.219565,11.3984444 C359.182565,12.1864444 359.463565,12.9154444 360.485565,13.3084444 C364.250565,14.7574444 364.384565,17.1664444 364.284565,19.7414444 C363.825565,31.5484444 363.399565,43.4394444 363.275565,55.2694444 C363.230565,55.2684444 363.186565,55.2684444 363.142565,55.2684444" id="path-1"></path>
        <filter x="-50%" y="-50%" width="200%" height="200%" filterUnits="objectBoundingBox" id="filter-2">
            <feOffset dx="0" dy="3" in="SourceAlpha" result="shadowOffsetOuter1"></feOffset>
            <feColorMatrix values="0 0 0 0 0   0 0 0 0 0.188235294   0 0 0 0 0.294117647  0 0 0 0.195652174 0" type="matrix" in="shadowOffsetOuter1"></feColorMatrix>
        </filter>
    </defs>
    <g id="Symbols" stroke="none" stroke-width="1" fill="none" fill-rule="evenodd">
        <g id="candidate-alt" transform="translate(2.000000, -3.000000)">
            <g id="Fill-1">
                <use fill="black" fill-opacity="1" filter="url(#filter-2)" xlink:href="#path-1"></use>
                <use fill="#FFFFFF" fill-rule="evenodd" xlink:href="#path-1"></use>
            </g>
        </g>
    </g>
</svg>