<?xml version="1.0" encoding="UTF-8" standalone="no"?>
<svg width="364px" height="56px" viewBox="0 0 364 56" version="1.1" xmlns="http://www.w3.org/2000/svg" xmlns:xlink="http://www.w3.org/1999/xlink" preserveAspectRatio="none">
    <!-- Generator: Sketch 3.8.3 (29802) - http://www.bohemiancoding.com/sketch -->
    <title>Fill 1</title>
    
    
    <g id="D2-How-to-vote" stroke="none" stroke-width="1" fill="none" fill-rule="evenodd">
        <g id="D2.1_howtovote" transform="translate(-538.000000, -1487.000000)" fill="#00B4FF">
            <path d="M901.192943,1501.98918 C901.64935,1505.39582 901.235869,1508.98299 901.223681,1512.5043 C899.877753,1514.79969 901.576166,1517.03306 901.037174,1519.35349 C900.551526,1521.44525 900.821039,1523.67539 901.320671,1525.63616 C902.144823,1528.87094 901.953371,1532.06686 901.998375,1535.28973 C902.040473,1538.28015 901.277041,1539.24238 898.265888,1540.1071 C896.152088,1540.71393 894.001675,1541.03377 891.758459,1541.04393 C885.752348,1541.07191 879.748002,1540.92187 873.741743,1540.99717 C867.694347,1541.07289 861.645998,1541.06581 855.584722,1541.13025 C849.523448,1541.19409 843.435898,1541.3424 837.334329,1541.52437 C831.232759,1541.70634 825.126985,1541.87884 819.030425,1542.00641 C812.933865,1542.13399 806.855084,1542.18594 800.804465,1542.13094 C794.753239,1542.07654 788.730759,1541.92171 782.728413,1541.71254 C776.726669,1541.50396 770.735309,1541.26349 764.743929,1541.02953 C760.07301,1540.84745 755.35898,1540.32868 750.715421,1540.6849 C745.809249,1541.0608 740.896343,1540.68615 735.998703,1541.04198 C731.813865,1541.34618 727.664225,1540.64449 723.513839,1540.95829 C715.983963,1541.52857 708.42046,1541.04834 700.912685,1541.5152 C685.509278,1542.47403 670.112976,1541.5421 654.717166,1541.81076 C648.703556,1541.9156 642.688074,1541.84477 636.672684,1541.93836 C633.901361,1541.94173 631.116924,1541.68836 628.348656,1541.68168 C625.509005,1541.67472 622.656196,1541.42523 619.870872,1541.84431 C614.634081,1541.15612 610.119336,1541.52586 605.596465,1541.59157 C597.810301,1541.70486 589.82001,1542.09473 581.786527,1542.36733 C577.22224,1542.52219 572.821656,1542.94856 568.389075,1542.77155 C566.074189,1542.67911 563.693243,1542.23688 561.325553,1542.78179 C559.914382,1543.10689 558.090958,1541.96836 556.541038,1542.36211 C554.488603,1542.884 552.401552,1542.6724 550.28299,1542.86638 C547.940527,1543.08138 545.594059,1543.02844 543.230089,1542.76844 C540.55346,1542.47468 538.635553,1540.78931 538.565641,1538.3766 C538.531753,1537.21549 538.510564,1536.05621 538.586824,1534.88075 C538.682106,1533.42503 538.845902,1531.91989 538.314087,1530.38602 C537.905779,1529.20925 537.921125,1527.77983 538.213092,1526.49462 C538.477458,1525.33054 538.536797,1524.14909 538.559063,1522.82852 C538.644774,1517.84549 538.551432,1512.46963 539.269983,1507.27497 C539.555869,1505.22383 538.88915,1496.3155 538.689187,1495.25607 C537.781628,1490.44421 540.288377,1487.40283 545.98382,1487.6729 C551.466352,1487.93208 557.550267,1487.78553 563.65362,1487.80761 C571.864531,1488.06089 579.419398,1487.23639 586.967918,1488.05959 C587.570252,1488.12523 588.143498,1488.01273 588.735014,1487.86127 C591.508545,1487.14998 594.330171,1487.11724 597.175557,1487.61333 C597.566754,1487.6811 597.980564,1487.67503 598.384136,1487.65413 C605.521986,1487.28223 612.685923,1487.66272 619.824453,1487.07257 C623.034583,1486.80715 626.175605,1487.36354 629.350167,1487.25234 C632.436998,1487.14493 635.527595,1487.18776 638.613878,1487.25601 C644.242021,1487.38033 649.836069,1488.15626 655.553655,1487.92133 C661.291081,1487.72611 667.042432,1487.91537 672.787055,1487.93428 C676.516583,1487.94649 680.290395,1488.30781 683.963849,1487.87209 C688.192254,1487.37053 692.391228,1487.57738 696.602019,1487.48679 C699.089167,1487.43382 701.619738,1487.22961 704.058447,1487.57803 C706.559441,1487.93497 709.066739,1488.01633 711.574779,1488.05334 C714.08282,1488.09035 716.590394,1488.083 719.082935,1488.2406 C739.339887,1487.68043 759.910054,1487.1694 779.976744,1488.45375 C782.02388,1488.46707 784.071637,1488.47567 786.118814,1488.47598 C792.260954,1488.47573 798.401524,1488.39682 804.529396,1488.1221 C806.556276,1488.0354 808.584882,1487.97708 810.61463,1487.94066 C824.824689,1487.68274 839.088322,1488.48073 853.232041,1488.1569 C855.344329,1488.03504 857.47174,1487.91383 859.629962,1487.80576 C870.424097,1487.26598 881.284935,1486.86959 891.76787,1487.57473 C893.611525,1487.65705 895.318329,1488.16939 897.187251,1488.10336 C899.033785,1488.03842 901.077578,1491.06446 901.066118,1493.18824 C901.060406,1494.24391 900.894955,1495.30961 900.800298,1496.37086 C900.614021,1498.29523 900.940497,1500.10627 901.192943,1501.98918 Z" id="Fill-1"></path>
        </g>
    </g>
</svg>