<?xml version="1.0" encoding="UTF-8" standalone="no"?>
<svg width="39px" height="36px" viewBox="0 0 39 36" version="1.1" xmlns="http://www.w3.org/2000/svg" xmlns:xlink="http://www.w3.org/1999/xlink">
    <!-- Generator: Sketch 3.8.3 (29802) - http://www.bohemiancoding.com/sketch -->
    <title>Group 6</title>
    <desc>Created with Sketch.</desc>
    <defs></defs>
    <g id="Symbols" stroke="none" stroke-width="1" fill="none" fill-rule="evenodd">
        <g id="D-legend" transform="translate(-17.000000, -289.000000)">
            <g id="Group-6" transform="translate(18.000000, 290.000000)">
                <g id="ref-heartvoter">
                    <path d="M17.591,33.3659 L4.708,20.4339 C4.542,20.2829 0,15.9639 0,10.8089 C0,4.5129 3.696,0.7549 9.87,0.7549 C13.482,0.7549 16.869,3.7179 18.5,5.3929 C20.132,3.7179 23.518,0.7549 27.13,0.7549 C33.304,0.7549 37,4.5129 37,10.8089 C37,15.9639 32.458,20.2829 32.271,20.4769 L19.409,33.3659 C19.159,33.6259 18.831,33.7539 18.5,33.7539 C18.169,33.7539 17.841,33.6259 17.591,33.3659" id="Fill-43" fill="#E3647B"></path>
                    <path d="M17.591,33.3659 L4.708,20.4339 C4.542,20.2829 0,15.9639 0,10.8089 C0,4.5129 3.696,0.7549 9.87,0.7549 C13.482,0.7549 16.869,3.7179 18.5,5.3929 C20.132,3.7179 23.518,0.7549 27.13,0.7549 C33.304,0.7549 37,4.5129 37,10.8089 C37,15.9639 32.458,20.2829 32.271,20.4769 L19.409,33.3659 C19.159,33.6259 18.831,33.7539 18.5,33.7539 C18.169,33.7539 17.841,33.6259 17.591,33.3659 L17.591,33.3659 Z" id="Stroke-44" stroke="#00304B" stroke-width="2"></path>
                </g>
                <path d="M12,16 L25,16 L25,10 L12,10 L12,16 Z M23,19 L25,19 L25,17 L23,17 L23,19 Z M12,19 L14,19 L14,17 L12,17 L12,19 Z M26,13 L26,10 C26,8.895 25.105,8 24,8 L13,8 C11.895,8 11,8.895 11,10 L11,13 L10,13 L10,17 L11,17 L11,19 C11,19.738 11.405,20.376 12,20.723 L12,23 L14,23 L14,21 L23,21 L23,23 L25,23 L25,20.723 C25.595,20.376 26,19.738 26,19 L26,17 L27,17 L27,13 L26,13 Z" id="Fill-19" fill="#FFFFFF"></path>
            </g>
        </g>
    </g>
</svg>