<?xml version="1.0" encoding="UTF-8" standalone="no"?>
<svg width="149px" height="27px" viewBox="0 0 149 27" version="1.1" xmlns="http://www.w3.org/2000/svg" xmlns:xlink="http://www.w3.org/1999/xlink">
    <!-- Generator: Sketch 3.8.3 (29802) - http://www.bohemiancoding.com/sketch -->
    <title>candidates</title>
    
    
    <g id="D1-Why-vote" stroke="none" stroke-width="1" fill="none" fill-rule="evenodd">
        <g id="D1.1_whyvote" transform="translate(-921.000000, -279.000000)" fill="#009DEE">
            <g id="nav-text" transform="translate(166.000000, 268.000000)">
                <path d="M890.6227,24.7689 C890.7147,23.9709 890.9477,23.2459 891.3227,22.5949 C891.6977,21.9449 892.2107,21.4029 892.8617,20.9689 C893.5117,20.5349 894.3007,20.2259 895.2267,20.0429 C896.1537,19.8609 897.2097,19.8329 898.3967,19.9609 C898.9647,20.0229 899.4777,20.1129 899.9367,20.2309 C900.3947,20.3489 900.8037,20.4849 901.1577,20.6389 C901.5127,20.7919 901.8157,20.9609 902.0657,21.1419 C902.3147,21.3219 902.5187,21.5109 902.6757,21.7069 C902.9017,21.9879 903.0437,22.2569 903.1047,22.5149 C903.1657,22.7729 903.1767,23.0659 903.1387,23.3939 C903.0717,23.9739 902.8607,24.3939 902.5047,24.6519 C902.1497,24.9099 901.7217,25.0119 901.2207,24.9569 C900.9587,24.9279 900.7237,24.8649 900.5157,24.7709 C900.3077,24.6749 900.0807,24.5739 899.8357,24.4669 C899.5907,24.3579 899.3117,24.2509 898.9977,24.1449 C898.6837,24.0389 898.2897,23.9589 897.8147,23.9079 C897.4917,23.8729 897.2227,23.8699 897.0047,23.8969 C896.7867,23.9249 896.6057,23.9729 896.4597,24.0429 C896.3147,24.1129 896.2077,24.2059 896.1387,24.3219 C896.0697,24.4369 896.0277,24.5629 896.0117,24.6969 C895.9787,24.9839 896.0597,25.2329 896.2537,25.4439 C896.4487,25.6579 896.7147,25.8559 897.0547,26.0409 C897.3937,26.2269 897.7847,26.4119 898.2267,26.5959 C898.6687,26.7799 899.1167,26.9879 899.5707,27.2219 C900.0247,27.4539 900.4657,27.7219 900.8937,28.0239 C901.3237,28.3269 901.6927,28.6909 902.0047,29.1179 C902.3157,29.5449 902.5477,30.0449 902.7007,30.6189 C902.8537,31.1949 902.8857,31.8689 902.7967,32.6429 C902.7007,33.4839 902.4557,34.2419 902.0657,34.9169 C901.6737,35.5939 901.1427,36.1539 900.4687,36.5989 C899.7947,37.0439 898.9767,37.3609 898.0167,37.5499 C897.0567,37.7379 895.9517,37.7649 894.7047,37.6319 C894.1027,37.5669 893.5557,37.4749 893.0627,37.3549 C892.5697,37.2349 892.1377,37.0969 891.7657,36.9429 C891.3937,36.7899 891.0797,36.6249 890.8237,36.4499 C890.5697,36.2739 890.3747,36.1019 890.2407,35.9349 C890.0067,35.6469 889.8517,35.3739 889.7737,35.1149 C889.6967,34.8559 889.6777,34.5499 889.7187,34.1959 C889.7877,33.5999 890.0027,33.1659 890.3637,32.8979 C890.7257,32.6289 891.1517,32.5199 891.6437,32.5719 C891.9067,32.5989 892.1437,32.6599 892.3567,32.7559 C892.5687,32.8499 892.8047,32.9549 893.0597,33.0709 C893.3157,33.1869 893.6197,33.3009 893.9677,33.4109 C894.3157,33.5189 894.7557,33.6029 895.2907,33.6599 C895.6547,33.6989 895.9677,33.7029 896.2277,33.6709 C896.4897,33.6399 896.7047,33.5799 896.8737,33.4919 C897.0427,33.4039 897.1697,33.2899 897.2537,33.1499 C897.3387,33.0099 897.3917,32.8559 897.4107,32.6879 C897.4457,32.3849 897.3667,32.1209 897.1727,31.8959 C896.9807,31.6709 896.7147,31.4619 896.3757,31.2679 C896.0387,31.0729 895.6477,30.8849 895.2057,30.7009 C894.7637,30.5179 894.3147,30.3109 893.8607,30.0799 C893.4067,29.8489 892.9647,29.5829 892.5367,29.2829 C892.1077,28.9819 891.7367,28.6239 891.4237,28.2089 C891.1117,27.7929 890.8777,27.3059 890.7237,26.7449 C890.5697,26.1839 890.5357,25.5259 890.6227,24.7689 M882.5187,32.1159 C884.4277,32.3039 885.3817,32.3999 887.2897,32.5939 C887.7997,32.6459 888.1877,32.8519 888.4557,33.2109 C888.7237,33.5709 888.8177,34.0869 888.7407,34.7589 C888.6637,35.4309 888.4537,35.9159 888.1107,36.2129 C887.7677,36.5089 887.3417,36.6319 886.8317,36.5799 C883.7117,36.2619 882.1527,36.1069 879.0307,35.8049 C878.2837,35.7329 877.7257,35.4709 877.3567,35.0189 C876.9887,34.5669 876.8477,33.9719 876.9327,33.2309 C877.5167,28.1559 877.8077,25.6189 878.3917,20.5429 C878.4767,19.8029 878.7497,19.2469 879.2127,18.8749 C879.6767,18.5019 880.2817,18.3519 881.0287,18.4249 C884.1247,18.7249 885.6717,18.8779 888.7667,19.1929 C889.2837,19.2459 889.6767,19.4519 889.9447,19.8109 C890.2117,20.1709 890.3077,20.6869 890.2297,21.3589 C890.1527,22.0319 889.9417,22.5169 889.5997,22.8129 C889.2567,23.1099 888.8257,23.2319 888.3087,23.1789 C886.4257,22.9869 885.4837,22.8929 883.6007,22.7059 C883.4777,23.7709 883.4167,24.3029 883.2937,25.3679 C884.8667,25.5229 885.6537,25.6019 887.2257,25.7609 C887.7177,25.8109 888.0957,26.0179 888.3587,26.3799 C888.6217,26.7429 888.7157,27.2439 888.6427,27.8829 C888.5687,28.5229 888.3627,28.9919 888.0237,29.2939 C887.6847,29.5949 887.2687,29.7209 886.7757,29.6709 C885.2047,29.5119 884.4167,29.4329 882.8447,29.2779 C882.7137,30.4129 882.6487,30.9799 882.5187,32.1159 M864.5037,21.1419 C863.9517,21.0949 863.5347,20.8859 863.2557,20.5199 C862.9767,20.1519 862.8777,19.6109 862.9597,18.8949 C863.0417,18.1799 863.2597,17.6669 863.6137,17.3519 C863.9667,17.0399 864.4247,16.9059 864.9857,16.9549 C869.5217,17.3469 871.7897,17.5509 876.3227,17.9759 C876.8827,18.0289 877.3017,18.2409 877.5757,18.6099 C877.8507,18.9799 877.9467,19.5229 877.8647,20.2379 C877.7827,20.9529 877.5627,21.4659 877.2057,21.7759 C876.8487,22.0859 876.3937,22.2159 875.8417,22.1639 C874.6547,22.0519 874.0607,21.9969 872.8737,21.8879 C872.3707,26.2669 872.1187,28.4569 871.6157,32.8359 C871.5297,33.5839 871.2427,34.1419 870.7537,34.5099 C870.2657,34.8769 869.5587,35.0189 868.6327,34.9349 C867.7157,34.8519 867.0617,34.5889 866.6707,34.1419 C866.2797,33.6949 866.1287,33.0979 866.2147,32.3499 C866.7177,27.9699 866.9697,25.7809 867.4737,21.4019 C866.2857,21.2969 865.6917,21.2449 864.5037,21.1419 M857.0367,26.5879 C856.7927,25.2129 856.6707,24.5259 856.4267,23.1519 C856.3637,22.8069 856.3087,22.4779 856.2627,22.1639 C856.2177,21.8509 856.1717,21.5769 856.1317,21.3449 C856.0837,21.0719 856.0497,20.8169 856.0257,20.5859 C856.0047,20.5839 855.9957,20.5829 855.9747,20.5819 C855.8977,20.8039 855.8097,21.0499 855.7107,21.3109 C855.6267,21.5319 855.5267,21.7929 855.4147,22.0889 C855.3047,22.3859 855.1827,22.7029 855.0497,23.0399 C854.5347,24.3529 854.2757,25.0089 853.7607,26.3219 C855.0717,26.4269 855.7267,26.4799 857.0367,26.5879 M851.7897,31.2949 C851.6587,31.6159 851.5187,31.9139 851.3717,32.1909 C851.2237,32.4679 851.0407,32.6959 850.8227,32.8729 C850.6147,33.0439 850.3627,33.1699 850.0657,33.2529 C849.7687,33.3359 849.4337,33.3629 849.0587,33.3339 C848.7267,33.3079 848.4017,33.2319 848.0807,33.1059 C847.7617,32.9799 847.4787,32.8109 847.2327,32.6019 C846.9877,32.3929 846.7967,32.1429 846.6627,31.8519 C846.5287,31.5629 846.4817,31.2449 846.5207,30.9009 C846.5417,30.7149 846.5837,30.5299 846.6487,30.3429 C846.7127,30.1579 846.8187,29.9089 846.9657,29.5979 C848.8097,25.5909 849.7297,23.5869 851.5737,19.5829 C851.7227,19.2549 851.8677,18.9599 852.0097,18.6999 C852.1507,18.4399 852.2927,18.2049 852.4377,17.9959 C852.5817,17.7869 852.7297,17.5989 852.8827,17.4329 C853.0337,17.2659 853.1957,17.1139 853.3657,16.9739 C853.7447,16.6649 854.2067,16.4409 854.7547,16.3019 C855.3027,16.1629 855.9767,16.1259 856.7757,16.1909 C857.5747,16.2559 858.2267,16.3999 858.7327,16.6249 C859.2397,16.8489 859.6437,17.1429 859.9437,17.5079 C860.0807,17.6719 860.2037,17.8479 860.3147,18.0359 C860.4267,18.2229 860.5287,18.4319 860.6227,18.6599 C860.7177,18.8879 860.8017,19.1419 860.8757,19.4199 C860.9517,19.6969 861.0297,20.0089 861.1097,20.3559 C862.0107,24.5429 862.4607,26.6369 863.3597,30.8259 C863.4337,31.1549 863.4817,31.4169 863.5017,31.6089 C863.5227,31.8019 863.5227,31.9829 863.5037,32.1509 C863.4587,32.5459 863.3277,32.8829 863.1117,33.1609 C862.8947,33.4389 862.6347,33.6639 862.3327,33.8329 C862.0307,34.0019 861.6987,34.1209 861.3397,34.1879 C860.9807,34.2539 860.6357,34.2739 860.3037,34.2459 C859.9037,34.2119 859.5647,34.1229 859.2857,33.9809 C859.0057,33.8389 858.7717,33.6539 858.5827,33.4259 C858.4097,33.2169 858.2797,32.9719 858.1917,32.6929 C858.1027,32.4139 858.0317,32.1109 857.9747,31.7839 C857.8897,31.3129 857.8467,31.0779 857.7617,30.6069 C855.5537,30.4249 854.4497,30.3349 852.2417,30.1599 C852.0607,30.6139 851.9707,30.8409 851.7897,31.2949 M837.5907,28.3819 C838.2027,28.4249 838.7647,28.3659 839.2757,28.2079 C839.7877,28.0499 840.2387,27.7839 840.6287,27.4139 C841.0187,27.0439 841.3417,26.5589 841.5997,25.9579 C841.8577,25.3569 842.0337,24.6409 842.1287,23.8089 C842.2257,22.9669 842.2257,22.2479 842.1267,21.6469 C842.0297,21.0459 841.8357,20.5489 841.5467,20.1549 C841.2577,19.7619 840.8737,19.4599 840.3957,19.2519 C839.9177,19.0459 839.3477,18.9179 838.6847,18.8719 C838.1637,18.8359 837.9027,18.8179 837.3817,18.7819 C836.9447,22.5859 836.7267,24.4879 836.2887,28.2919 C836.8097,28.3279 837.0697,28.3459 837.5907,28.3819 M832.1527,16.8289 C832.2377,16.0889 832.5117,15.5269 832.9767,15.1419 C833.4407,14.7579 834.0477,14.5899 834.7967,14.6399 C836.6197,14.7619 837.5307,14.8249 839.3527,14.9519 C840.8587,15.0569 842.1687,15.3479 843.2797,15.8219 C844.3907,16.2969 845.2987,16.9259 846.0017,17.7079 C846.7057,18.4889 847.2007,19.4089 847.4867,20.4649 C847.7717,21.5209 847.8427,22.6799 847.6977,23.9409 C847.5367,25.3449 847.1767,26.5899 846.6197,27.6759 C846.0607,28.7629 845.3217,29.6649 844.4037,30.3859 C843.4837,31.1059 842.3987,31.6329 841.1467,31.9659 C839.8947,32.2989 838.4907,32.4109 836.9337,32.3029 C835.2797,32.1879 834.4527,32.1309 832.7987,32.0199 C832.0497,31.9699 831.4897,31.7259 831.1207,31.2859 C830.7507,30.8459 830.6087,30.2579 830.6947,29.5169 C831.2777,24.4419 831.5697,21.9039 832.1527,16.8289 M824.5557,16.2489 C824.6417,15.5009 824.9287,14.9359 825.4187,14.5549 C825.9077,14.1739 826.6127,14.0119 827.5327,14.0699 C828.4597,14.1269 829.1187,14.3739 829.5107,14.8099 C829.9027,15.2459 830.0557,15.8379 829.9697,16.5859 C829.3767,21.7419 829.0807,24.3199 828.4877,29.4759 C828.4017,30.2239 828.1137,30.7879 827.6237,31.1689 C827.1347,31.5479 826.4257,31.7079 825.4977,31.6499 C824.5787,31.5929 823.9237,31.3479 823.5317,30.9139 C823.1397,30.4779 822.9877,29.8869 823.0737,29.1389 C823.6657,23.9829 823.9627,21.4049 824.5557,16.2489 M812.3877,26.8289 C813.0007,26.8619 813.5627,26.7939 814.0757,26.6279 C814.5877,26.4619 815.0387,26.1899 815.4297,25.8139 C815.8197,25.4379 816.1437,24.9489 816.4017,24.3449 C816.6597,23.7409 816.8357,23.0239 816.9317,22.1909 C817.0277,21.3499 817.0277,20.6309 816.9287,20.0329 C816.8307,19.4359 816.6377,18.9419 816.3477,18.5539 C816.0587,18.1659 815.6737,17.8709 815.1947,17.6709 C814.7167,17.4719 814.1457,17.3539 813.4807,17.3189 C812.9597,17.2909 812.6997,17.2769 812.1777,17.2499 C811.7407,21.0539 811.5217,22.9559 811.0847,26.7589 C811.6057,26.7869 811.8667,26.8009 812.3877,26.8289 M806.9427,15.3849 C807.0277,14.6439 807.3017,14.0789 807.7667,13.6879 C808.2317,13.2959 808.8397,13.1189 809.5887,13.1569 C811.4137,13.2499 812.3257,13.2979 814.1497,13.3949 C815.6587,13.4769 816.9697,13.7459 818.0817,14.2009 C819.1947,14.6569 820.1037,15.2709 820.8087,16.0399 C821.5127,16.8079 822.0087,17.7179 822.2947,18.7679 C822.5807,19.8169 822.6517,20.9729 822.5077,22.2349 C822.3457,23.6389 821.9857,24.8879 821.4277,25.9799 C820.8697,27.0729 820.1287,27.9859 819.2087,28.7199 C818.2887,29.4529 817.2027,29.9969 815.9487,30.3489 C814.6957,30.7019 813.2897,30.8359 811.7307,30.7529 C810.0747,30.6649 809.2467,30.6209 807.5907,30.5369 C806.8407,30.4989 806.2807,30.2649 805.9107,29.8309 C805.5397,29.3979 805.3987,28.8129 805.4837,28.0729 C806.0667,22.9979 806.3587,20.4599 806.9427,15.3849 M788.0497,15.6839 C788.1887,14.4729 788.5897,13.5889 789.2527,13.0309 C789.9167,12.4739 790.8827,12.2189 792.1537,12.2689 C792.7417,12.2919 793.2357,12.3719 793.6367,12.5059 C794.0357,12.6399 794.3807,12.8279 794.6697,13.0679 C794.9587,13.3079 795.2077,13.6039 795.4157,13.9539 C795.6237,14.3049 795.8257,14.7089 796.0217,15.1639 C797.0937,17.6429 797.6287,18.8829 798.7007,21.3639 C798.8357,21.6839 798.9567,21.9949 799.0627,22.2989 C799.1687,22.6039 799.2557,22.8759 799.3227,23.1159 C799.4007,23.3989 799.4727,23.6679 799.5377,23.9249 C799.5637,23.9159 799.5777,23.9109 799.6047,23.9019 C799.5867,23.6059 799.5827,23.2869 799.5847,22.9509 C799.5867,22.6569 799.5877,22.3209 799.5907,21.9489 C799.5947,21.5779 799.6127,21.1809 799.6447,20.7599 C799.8027,18.3179 799.8807,17.0969 800.0387,14.6539 C800.0767,14.0219 800.3257,13.5319 800.7847,13.1859 C801.2447,12.8379 801.8747,12.6839 802.6757,12.7209 C803.4517,12.7569 804.0167,12.9649 804.3717,13.3449 C804.7267,13.7259 804.8667,14.2349 804.7927,14.8739 C804.2427,19.6669 803.9667,22.0639 803.4157,26.8559 C803.2767,28.0669 802.8757,28.9479 802.2117,29.4999 C801.5487,30.0519 800.5817,30.2989 799.3127,30.2409 C798.7247,30.2139 798.2297,30.1329 797.8307,29.9969 C797.4307,29.8609 797.0867,29.6719 796.7967,29.4309 C796.5087,29.1909 796.2597,28.8939 796.0517,28.5439 C795.8427,28.1919 795.6407,27.7879 795.4447,27.3319 C794.3727,24.8529 793.8377,23.6139 792.7657,21.1379 C792.6307,20.8189 792.5107,20.5099 792.4037,20.2109 C792.2967,19.9109 792.2117,19.6349 792.1447,19.3899 C792.0677,19.1089 791.9937,18.8389 791.9287,18.5829 C791.9017,18.5919 791.8887,18.5959 791.8617,18.6049 C791.8707,18.9009 791.8787,19.2189 791.8807,19.5559 C791.8827,19.8509 791.8787,20.1879 791.8747,20.5639 C791.8697,20.9389 791.8517,21.3329 791.8227,21.7459 C791.6647,24.1869 791.5867,25.4089 791.4287,27.8499 C791.3897,28.4819 791.1417,28.9729 790.6817,29.3209 C790.2217,29.6709 789.5907,29.8299 788.7897,29.7989 C788.0147,29.7689 787.4487,29.5659 787.0937,29.1889 C786.7387,28.8119 786.5987,28.3049 786.6717,27.6659 C787.2227,22.8729 787.4977,20.4769 788.0497,15.6839 M779.5967,22.1649 C779.3517,20.8109 779.2277,20.1329 778.9827,18.7789 C778.9187,18.4389 778.8637,18.1139 778.8177,17.8049 C778.7717,17.4969 778.7267,17.2249 778.6857,16.9969 C778.6377,16.7289 778.6037,16.4759 778.5797,16.2469 C778.5587,16.2469 778.5487,16.2459 778.5277,16.2459 C778.4507,16.4709 778.3637,16.7189 778.2637,16.9839 C778.1797,17.2079 778.0787,17.4719 777.9677,17.7719 C777.8557,18.0729 777.7347,18.3939 777.6007,18.7359 C777.0837,20.0669 776.8257,20.7319 776.3097,22.0629 C777.6237,22.1019 778.2817,22.1229 779.5967,22.1649 M774.3327,27.1039 C774.2017,27.4299 774.0607,27.7329 773.9137,28.0159 C773.7657,28.2989 773.5817,28.5339 773.3637,28.7209 C773.1547,28.9009 772.9017,29.0389 772.6037,29.1359 C772.3057,29.2339 771.9697,29.2769 771.5937,29.2659 C771.2607,29.2569 770.9347,29.1969 770.6127,29.0879 C770.2917,28.9779 770.0077,28.8239 769.7607,28.6279 C769.5147,28.4319 769.3237,28.1929 769.1887,27.9109 C769.0547,27.6309 769.0067,27.3159 769.0467,26.9709 C769.0677,26.7859 769.1097,26.5999 769.1747,26.4109 C769.2387,26.2239 769.3447,25.9709 769.4927,25.6549 C771.3407,21.5789 772.2637,19.5419 774.1117,15.4689 C774.2607,15.1349 774.4067,14.8359 774.5487,14.5699 C774.6897,14.3049 774.8327,14.0629 774.9777,13.8489 C775.1227,13.6339 775.2707,13.4389 775.4237,13.2669 C775.5757,13.0939 775.7377,12.9339 775.9087,12.7869 C776.2887,12.4609 776.7527,12.2149 777.3027,12.0509 C777.8527,11.8849 778.5287,11.8149 779.3307,11.8399 C780.1317,11.8649 780.7867,11.9769 781.2947,12.1759 C781.8027,12.3729 782.2087,12.6459 782.5107,12.9939 C782.6467,13.1509 782.7707,13.3189 782.8827,13.4999 C782.9947,13.6809 783.0977,13.8829 783.1917,14.1059 C783.2867,14.3279 783.3717,14.5769 783.4467,14.8489 C783.5217,15.1209 783.6007,15.4279 783.6817,15.7679 C784.5867,19.8869 785.0397,21.9469 785.9437,26.0689 C786.0187,26.3919 786.0667,26.6499 786.0867,26.8399 C786.1087,27.0309 786.1087,27.2109 786.0887,27.3789 C786.0437,27.7729 785.9127,28.1149 785.6957,28.4029 C785.4777,28.6899 785.2177,28.9259 784.9147,29.1089 C784.6107,29.2919 784.2787,29.4259 783.9177,29.5099 C783.5567,29.5939 783.2107,29.6309 782.8777,29.6189 C782.4767,29.6049 782.1367,29.5339 781.8557,29.4059 C781.5747,29.2789 781.3407,29.1059 781.1507,28.8889 C780.9767,28.6889 780.8467,28.4519 780.7577,28.1789 C780.6687,27.9059 780.5967,27.6079 780.5397,27.2859 C780.4537,26.8219 780.4107,26.5899 780.3247,26.1259 C778.1097,26.0529 777.0017,26.0189 774.7857,25.9539 C774.6047,26.4139 774.5147,26.6439 774.3327,27.1039 M755.8907,20.7219 C756.0557,19.2839 756.4127,17.9779 756.9627,16.8039 C757.5117,15.6299 758.2167,14.6309 759.0777,13.8089 C759.9367,12.9859 760.9357,12.3559 762.0727,11.9199 C763.2077,11.4839 764.4467,11.2799 765.7867,11.3099 C766.3237,11.3229 766.8087,11.3699 767.2397,11.4519 C767.6707,11.5329 768.0507,11.6379 768.3787,11.7629 C768.7057,11.8889 768.9827,12.0269 769.2097,12.1759 C769.4357,12.3249 769.6187,12.4769 769.7537,12.6319 C769.9887,12.8999 770.1457,13.1749 770.2247,13.4599 C770.3027,13.7449 770.3197,14.0759 770.2757,14.4549 C770.2457,14.7229 770.1747,14.9679 770.0637,15.1899 C769.9527,15.4099 769.8107,15.5979 769.6397,15.7539 C769.4667,15.9099 769.2687,16.0309 769.0447,16.1179 C768.8217,16.2049 768.5857,16.2459 768.3387,16.2399 C768.1247,16.2349 767.9317,16.1919 767.7567,16.1119 C767.5817,16.0319 767.3937,15.9449 767.1957,15.8519 C766.9977,15.7589 766.7647,15.6709 766.5007,15.5889 C766.2367,15.5069 765.9077,15.4609 765.5157,15.4519 C765.0717,15.4419 764.6327,15.5269 764.1967,15.7069 C763.7617,15.8869 763.3607,16.1739 762.9947,16.5669 C762.6287,16.9589 762.3117,17.4649 762.0497,18.0819 C761.7867,18.6989 761.6047,19.4429 761.5057,20.3089 C761.4167,21.0819 761.4307,21.7589 761.5477,22.3389 C761.6647,22.9189 761.8617,23.4049 762.1377,23.7989 C762.4137,24.1929 762.7597,24.4889 763.1767,24.6879 C763.5937,24.8859 764.0597,24.9909 764.5717,25.0029 C764.9897,25.0129 765.3457,24.9849 765.6397,24.9209 C765.9347,24.8559 766.1947,24.7819 766.4227,24.6979 C766.6497,24.6159 766.8577,24.5389 767.0457,24.4669 C767.2337,24.3959 767.4337,24.3629 767.6477,24.3679 C767.8607,24.3729 768.0567,24.4199 768.2347,24.5089 C768.4127,24.5989 768.5627,24.7219 768.6857,24.8809 C768.8097,25.0409 768.8987,25.2259 768.9557,25.4379 C769.0127,25.6509 769.0257,25.8829 768.9977,26.1349 C768.9577,26.4799 768.8637,26.7839 768.7137,27.0459 C768.5637,27.3059 768.3507,27.5569 768.0747,27.7939 C767.8847,27.9579 767.6457,28.1249 767.3567,28.2949 C767.0677,28.4649 766.7217,28.6139 766.3227,28.7429 C765.9237,28.8729 765.4617,28.9759 764.9397,29.0529 C764.4197,29.1289 763.8247,29.1589 763.1587,29.1439 C761.9127,29.1159 760.8057,28.9019 759.8387,28.4979 C758.8717,28.0959 758.0707,27.5309 757.4357,26.8029 C756.8007,26.0749 756.3487,25.1959 756.0777,24.1689 C755.8067,23.1399 755.7447,21.9919 755.8907,20.7219" id="candidates"></path>
            </g>
        </g>
    </g>
</svg>