<?xml version="1.0" encoding="UTF-8" standalone="no"?>
<svg width="134px" height="78px" viewBox="0 0 134 78" version="1.1" xmlns="http://www.w3.org/2000/svg" xmlns:xlink="http://www.w3.org/1999/xlink">
    <!-- Generator: Sketch 3.8.3 (29802) - http://www.bohemiancoding.com/sketch -->
    <title>Page 1</title>
    
    
    <g id="Symbols" stroke="none" stroke-width="1" fill="none" fill-rule="evenodd">
        <g id="Footer" transform="translate(-32.000000, -120.000000)">
            <g id="Page-1" transform="translate(32.000000, 120.000000)">
                <polygon id="Fill-1" fill="#012639" points="17.394948 21.5415375 10.4307984 21.5415375 10.4307984 9.16781621 13.0052873 9.16781621 13.0052873 19.4388136 17.394948 19.4388136"></polygon>
                <g id="Group-38" transform="translate(0.000000, 0.034446)">
                    <path d="M26.9307409,17.0200821 C26.9307409,18.3844564 26.5009106,19.504711 25.6442453,20.3808459 C24.7860824,21.2569809 23.6703208,21.6942995 22.2954629,21.6942995 C20.9191073,21.6942995 19.806341,21.2749529 18.9571641,20.4362596 C18.1049918,19.5975663 17.6796545,18.4967814 17.6796545,17.1309094 C17.6796545,15.7800142 18.1094848,14.6567642 18.9751361,13.7626573 C19.837792,12.8685503 20.9460653,12.4192504 22.2954629,12.4192504 C23.7437065,12.4192504 24.8909191,12.8625597 25.7385983,13.7521736 C26.5323616,14.5908669 26.9307409,15.6796705 26.9307409,17.0200821 M24.3008384,17.0754958 C24.3008384,16.2637605 24.1166254,15.6137732 23.7526925,15.1315245 C23.3857641,14.6507736 22.8870412,14.4081516 22.2565235,14.4081516 C21.6125269,14.4081516 21.1138039,14.6672479 20.76335,15.1794499 C20.4473423,15.6437265 20.2885897,16.2757418 20.2885897,17.0754958 C20.2885897,17.8902264 20.4683096,18.5402137 20.8292473,19.0269553 C21.1886873,19.5151946 21.6844149,19.7608119 22.3149325,19.7608119 C22.9694128,19.7608119 23.4726288,19.504711 23.8260781,18.9910113 C24.1420858,18.516251 24.3008384,17.8767474 24.3008384,17.0754958" id="Fill-2" fill="#012639"></path>
                    <path d="M35.458754,20.6999987 C34.5257077,21.3649626 33.4354064,21.6944493 32.1848548,21.6944493 C30.7605739,21.6944493 29.6448123,21.2436516 28.83757,20.343554 C28.0812484,19.5048607 27.7038364,18.4205501 27.7038364,17.0936175 C27.7038364,15.7307409 28.1681131,14.6044957 29.1011594,13.7148817 C29.9982616,12.8522258 31.1005442,12.4194001 32.4125002,12.4194001 C33.5357501,12.4194001 34.4118851,12.6335665 35.0424027,13.0589038 L35.004961,15.0867443 C34.3774387,14.585026 33.6405868,14.3349157 32.8003958,14.3349157 C32.0845112,14.3349157 31.4839469,14.5835283 31.0002006,15.0762606 C30.5179519,15.5719883 30.27533,16.2055013 30.27533,16.9827902 C30.27533,17.7331212 30.4700266,18.3516575 30.8609176,18.8398968 C31.3117152,19.3910381 31.9452282,19.6666087 32.7629541,19.6666087 C33.4309134,19.6666087 34.1213377,19.4674191 34.8357247,19.0675421 L35.458754,20.6999987 Z" id="Fill-4" fill="#012639"></path>
                    <path d="M43.9156279,21.5070912 L41.7574903,21.5070912 L41.3621064,20.7372906 C40.6552077,21.3752965 39.8105238,21.6942995 38.8265568,21.6942995 C37.9564126,21.6942995 37.2390303,21.4277149 36.6804006,20.8975409 C36.1187757,20.3643716 35.838712,19.666459 35.838712,18.803803 C35.838712,17.8902264 36.189166,17.1758394 36.8930693,16.6636375 C37.5445542,16.1739005 38.4581309,15.9118088 39.6263108,15.8758648 L41.1359587,15.8174558 L41.1359587,15.6676892 C41.1359587,14.7780752 40.5758314,14.3347659 39.4570745,14.3347659 C38.6797855,14.3347659 37.9309522,14.5354532 37.2150676,14.9368279 L36.4422716,13.395729 C37.4531966,12.744244 38.6558228,12.4192504 40.0561411,12.4192504 C42.527291,12.4192504 43.7658612,13.5200353 43.7658612,15.7246005 L43.7658612,19.4972226 C43.7658612,20.4991616 43.8152842,21.1701162 43.9156279,21.5070912 M41.1359587,19.3175026 L41.1359587,17.5262934 L40.0246901,17.5262934 C38.9478678,17.5637351 38.4102055,17.9276681 38.4102055,18.6165947 C38.4102055,19.3549443 38.8610032,19.7233703 39.7640961,19.7233703 C40.3152374,19.7233703 40.7720257,19.590078 41.1359587,19.3175026" id="Fill-6" fill="#012639"></path>
                    <path d="M49.4788602,21.2063597 C48.8723052,21.5313534 48.2238156,21.694599 47.5288983,21.694599 C46.0551944,21.694599 45.3168447,21.0056724 45.3168447,19.6293168 L45.3168447,8.21260447 L47.8883383,8.21260447 L47.8883383,18.5210436 C47.8883383,19.1096265 48.0725512,19.4046668 48.4364842,19.4046668 C48.6401669,19.4046668 48.8797935,19.3732158 49.1568619,19.3103138 L49.4788602,21.2063597 Z" id="Fill-8" fill="#012639"></path>
                    <polygon id="Fill-10" fill="#012639" points="61.565329 21.5070912 54.3555621 21.5070912 54.3555621 9.13336988 61.583301 9.13336988 60.9003651 11.2360938 56.9300509 11.2360938 56.9300509 14.1475576 60.9213324 14.1475576 60.9213324 16.2502815 56.9300509 16.2502815 56.9300509 19.4043673 61.565329 19.4043673"></polygon>
                    <path d="M66.9385074,21.2063597 C66.3319524,21.5313534 65.6834628,21.694599 64.9885455,21.694599 C63.5148416,21.694599 62.776492,21.0056724 62.776492,19.6293168 L62.776492,8.21260447 L65.3479855,8.21260447 L65.3479855,18.5210436 C65.3479855,19.1096265 65.5321985,19.4046668 65.8961315,19.4046668 C66.0998141,19.4046668 66.3394408,19.3732158 66.6165091,19.3103138 L66.9385074,21.2063597 Z" id="Fill-12" fill="#012639"></path>
                    <path d="M75.6961128,17.7719107 L69.9091291,17.7719107 C69.9345894,18.3470147 70.1936857,18.817282 70.6849204,19.1782196 C71.1252343,19.5151946 71.6599013,19.6874263 72.2934143,19.6874263 C73.1006566,19.6874263 73.9004105,19.4792506 74.6941738,19.0673923 L75.2827568,20.6818769 C74.2718318,21.3573245 73.1380982,21.6942995 71.877063,21.6942995 C70.3764011,21.6942995 69.2157095,21.2195392 68.3949882,20.2670233 C67.6880895,19.441809 67.3361379,18.3889494 67.3361379,17.1129374 C67.3361379,15.7994838 67.7000709,14.7046896 68.4339275,13.8285546 C69.2022305,12.8895177 70.2356204,12.4192504 71.5370927,12.4192504 C72.7711699,12.4192504 73.7731089,12.838597 74.5429095,13.6772903 C75.3142078,14.5174812 75.6961128,15.6242568 75.6961128,17.0021101 L75.6961128,17.7719107 Z M73.0871776,16.0256315 C73.0482382,15.5478759 72.9104529,15.1554872 72.6708263,14.8409772 C72.3667999,14.4665606 71.9639276,14.2793523 71.459214,14.2793523 C70.9799607,14.2793523 70.592065,14.4590722 70.2970247,14.8230052 C70.0019844,15.1869382 69.8507201,15.5853175 69.8507201,16.0256315 L73.0871776,16.0256315 Z" id="Fill-14" fill="#012639"></path>
                    <path d="M84.2084003,20.6999987 C83.2738564,21.3649626 82.1850528,21.6944493 80.9345012,21.6944493 C79.5102202,21.6944493 78.3944586,21.2436516 77.5872163,20.343554 C76.8308947,19.5048607 76.4534827,18.4205501 76.4534827,17.0936175 C76.4534827,15.7307409 76.9177594,14.6044957 77.8508057,13.7148817 C78.7479079,12.8522258 79.8501906,12.4194001 81.1621465,12.4194001 C82.2853964,12.4194001 83.1615314,12.6335665 83.792049,13.0589038 L83.7546073,15.0867443 C83.127085,14.585026 82.3902331,14.3349157 81.5500421,14.3349157 C80.8341575,14.3349157 80.2335932,14.5835283 79.7498469,15.0762606 C79.2675983,15.5719883 79.0249763,16.2055013 79.0249763,16.9827902 C79.0249763,17.7331212 79.2196729,18.3516575 79.6105639,18.8398968 C80.0613615,19.3910381 80.6948745,19.6666087 81.5126005,19.6666087 C82.1805598,19.6666087 82.870984,19.4674191 83.585371,19.0675421 L84.2084003,20.6999987 Z" id="Fill-16" fill="#012639"></path>
                    <path d="M91.3226161,20.9823088 C90.4524718,21.4570691 89.4415469,21.6937004 88.2943343,21.6937004 C86.669366,21.6937004 85.8546354,20.9823088 85.8546354,19.5550326 L85.8546354,14.5034032 L84.2086998,14.5034032 L84.2086998,12.6253293 L85.8546354,12.6253293 L85.8546354,10.5600471 L88.4261289,9.80821845 L88.4261289,12.6253293 L91.2087934,12.6253293 L90.4764345,14.5034032 L88.4261289,14.5034032 L88.4261289,18.7672599 C88.4261289,19.3678242 88.7211692,19.6658599 89.3097522,19.6658599 C89.7006432,19.6658599 90.1754035,19.5475442 90.7400238,19.3094152 L91.3226161,20.9823088 Z" id="Fill-18" fill="#012639"></path>
                    <path d="M95.1421152,9.92189134 C95.1421152,10.3352473 94.9938462,10.687199 94.6988059,10.9747509 C94.4007702,11.2623029 94.0308466,11.4045813 93.5905326,11.4045813 C93.1636976,11.4045813 92.7967693,11.2623029 92.4942407,10.9747509 C92.1902144,10.687199 92.0404477,10.3352473 92.0404477,9.92189134 C92.0404477,9.51003303 92.1902144,9.15957905 92.4942407,8.87202706 C92.7967693,8.58147975 93.1636976,8.43920142 93.5905326,8.43920142 C94.0308466,8.43920142 94.4007702,8.57848441 94.6988059,8.8615434 C94.9938462,9.14310472 95.1421152,9.49655403 95.1421152,9.92189134 L95.1421152,9.92189134 Z M92.304037,21.50784 L94.8785259,21.50784 L94.8785259,12.6266772 L92.304037,12.6266772 L92.304037,21.50784 Z" id="Fill-20" fill="#012639"></path>
                    <path d="M105.548502,17.0200821 C105.548502,18.3844564 105.118671,19.504711 104.260508,20.3808459 C103.403843,21.2569809 102.288082,21.6942995 100.913224,21.6942995 C99.536868,21.6942995 98.4241017,21.2749529 97.5749248,20.4362596 C96.7227525,19.5975663 96.2974152,18.4967814 96.2974152,17.1309094 C96.2974152,15.7800142 96.7272455,14.6567642 97.5928968,13.7626573 C98.4555527,12.8685503 99.563826,12.4192504 100.913224,12.4192504 C102.361467,12.4192504 103.50868,12.8625597 104.356359,13.7521736 C105.150122,14.5908669 105.548502,15.6796705 105.548502,17.0200821 M102.918599,17.0754958 C102.918599,16.2637605 102.734386,15.6137732 102.370453,15.1315245 C102.003525,14.6507736 101.504802,14.4081516 100.874284,14.4081516 C100.230288,14.4081516 99.7315647,14.6672479 99.3811107,15.1794499 C99.065103,15.6437265 98.9063504,16.2757418 98.9063504,17.0754958 C98.9063504,17.8902264 99.0860704,18.5402137 99.447008,19.0269553 C99.806448,19.5151946 100.302176,19.7608119 100.932693,19.7608119 C101.585676,19.7608119 102.09039,19.504711 102.443839,18.9910113 C102.759846,18.516251 102.918599,17.8767474 102.918599,17.0754958" id="Fill-22" fill="#012639"></path>
                    <path d="M115.155284,21.5070912 L112.580795,21.5070912 L112.580795,16.3626065 C112.580795,15.1734592 112.165941,14.5773879 111.333239,14.5773879 C110.702721,14.5773879 110.003311,14.8364842 109.23351,15.3471885 L109.23351,21.5070912 L106.662017,21.5070912 L106.662017,12.6259284 L108.839624,12.6259284 L109.106209,13.5649653 C110.117134,12.802653 111.166998,12.4192504 112.254304,12.4192504 C113.049565,12.4192504 113.70704,12.6513887 114.226731,13.1141677 C114.843769,13.6772903 115.155284,14.5174812 115.155284,15.6302475 L115.155284,21.5070912 Z" id="Fill-24" fill="#012639"></path>
                    <path d="M123.269192,18.8771887 C123.269192,19.8297046 122.888785,20.5545752 122.132463,21.0562935 C121.474988,21.4831285 120.615327,21.6942995 119.551984,21.6942995 C118.162149,21.6942995 116.973002,21.4022545 115.98604,20.8136716 L116.80077,18.9715417 C117.569073,19.5241806 118.401776,19.7982536 119.295883,19.7982536 C120.230427,19.7982536 120.697699,19.5286736 120.697699,18.9910113 C120.697699,18.628576 120.338259,18.309573 119.617881,18.0325047 C118.535068,17.6221441 117.871602,17.3315968 117.631975,17.1698488 C116.914593,16.6831071 116.553655,16.0046642 116.553655,15.1420082 C116.553655,14.3167939 116.872658,13.656323 117.510664,13.1605953 C118.145675,12.667863 119.014321,12.4192504 120.112111,12.4192504 C121.06912,12.4192504 121.970715,12.5705147 122.815399,12.8715457 L122.815399,14.9727719 C121.817953,14.5728949 120.937325,14.3722076 120.167525,14.3722076 C119.409705,14.3722076 119.032293,14.5848762 119.032293,15.0102136 C119.032293,15.3112445 119.399222,15.5987965 120.136074,15.8758648 C121.172459,16.2502815 121.849404,16.5513125 122.16691,16.7744648 C122.902264,17.2761831 123.269192,17.9770911 123.269192,18.8771887" id="Fill-26" fill="#012639"></path>
                    <path d="M36.994012,66.8248345 L9.52830456,66.8248345 C9.9880882,61.4392255 11.8212321,56.8848214 15.0337269,53.1661153 C16.2947622,51.6864207 19.1223567,49.2781728 23.5195058,45.9383764 C26.4609229,43.6993648 27.9331292,41.6520546 27.9331292,39.7919527 C27.9331292,36.9463862 26.1179573,35.5251006 22.4861158,35.5251006 C19.7349023,35.5251006 16.4849658,36.3757752 12.7393017,38.0831151 L10.9615715,32.1089232 C15.9308292,29.9852319 20.307011,28.9218887 24.0916144,28.9218887 C28.1443002,28.9218887 31.2594467,29.8714093 33.4385515,31.7689528 C35.4633968,33.5511761 36.477317,35.9594239 36.477317,38.9951941 C36.477317,41.8796999 35.1983098,44.6294158 32.6358023,47.247337 C32.5204819,47.359662 29.9804394,49.4474092 25.009684,53.5060856 C22.0293275,55.9353008 20.212658,58.2312237 19.5626707,60.3938542 L36.994012,60.1092976 L36.994012,66.8248345 Z" id="Fill-28" fill="#E32726"></path>
                    <path d="M68.9302542,48.3285025 C68.9302542,54.4749261 67.6587353,59.1910782 65.1186928,62.4694703 C62.5756549,65.7538531 59.0666221,67.3952957 54.5960873,67.3952957 C50.1225573,67.3952957 46.6539615,65.7613415 44.1873046,62.4994237 C41.7236431,59.2360082 40.4895658,54.5138655 40.4895658,48.3285025 C40.4895658,42.1461348 41.7790567,37.3625878 44.3610339,33.9868473 C46.9415134,30.6096091 50.4685182,28.9217389 54.939053,28.9217389 C59.3736437,28.9217389 62.8137839,30.5991255 65.2609711,33.9568939 C67.7066606,37.3161601 68.9302542,42.1056978 68.9302542,48.3285025 M60.7320273,48.7852908 C60.7320273,39.603097 58.6667451,35.0097536 54.5376783,35.0097536 C52.2462485,35.0097536 50.6392522,36.3022398 49.7211826,38.8827193 C48.996312,40.8551462 48.632379,43.8699491 48.632379,47.9301232 C48.632379,56.8861693 50.6976612,61.3611971 54.8252303,61.3611971 C57.1555995,61.3611971 58.7820654,60.1301151 59.6971397,57.6604629 C60.3860664,55.764417 60.7320273,52.8050279 60.7320273,48.7852908" id="Fill-30" fill="#E32726"></path>
                    <polygon id="Fill-32" fill="#E32726" points="89.9747162 66.8248345 82.2901889 66.8248345 82.2901889 37.0047952 73.3461241 40.2457457 71.1670192 34.7538023 84.1817418 29.0941203 89.9747162 29.0941203"></polygon>
                    <path d="M124.147574,54.1896206 C124.147574,58.1749114 122.799674,61.3799179 120.103874,63.8091331 C117.411069,66.2368506 114.13118,67.4499606 110.270195,67.4499606 C106.105184,67.4499606 102.73843,66.028675 100.180415,63.1816108 C97.3138815,60.032018 95.8776192,55.5195486 95.8776192,49.6367142 C95.8776192,43.7179359 97.4262065,38.8250592 100.523381,34.9550887 C103.73288,30.9323563 107.977268,28.9224877 113.253547,28.9224877 C116.233903,28.9224877 119.236725,29.567982 122.253025,30.8559753 L120.249148,36.8331626 C118.146424,35.7323777 115.986788,35.1812364 113.767247,35.1812364 C111.170293,35.1812364 109.046602,35.960023 107.405159,37.5160986 C105.492639,39.2593825 104.327454,41.839862 103.908107,45.2560395 C106.466122,43.4723186 109.355121,42.581207 112.56462,42.581207 C115.851998,42.581207 118.56577,43.5861412 120.707434,45.5960098 C123.000361,47.7211987 124.147574,50.5862348 124.147574,54.1896206 M116.350721,55.3293449 C116.350721,53.2430954 115.756148,51.5911691 114.572991,50.3780592 C113.500662,49.2787719 112.106334,48.7261329 110.385515,48.7261329 C108.014709,48.7261329 105.911985,49.5633286 104.078841,51.2302315 C104.192664,54.4951446 104.938502,57.0546568 106.316355,58.913261 C107.536954,60.6206009 109.046602,61.4757686 110.845299,61.4757686 C112.488239,61.4757686 113.815172,60.8976693 114.83059,59.739973 C115.841515,58.5822767 116.350721,57.1130658 116.350721,55.3293449" id="Fill-34" fill="#E32726"></path>
                    <path d="M0.817725954,12.0142813 L0.817725954,0.783279622 L11.2714387,0.783279622 M121.628498,1.17117527 L132.8595,1.17117527 L132.8595,11.6263857 M132.8595,65.8299346 L132.8595,77.0609363 L122.40429,77.0609363 M12.0487277,76.6730407 L0.817725954,76.6730407 L0.817725954,66.2178303" id="Stroke-36" stroke="#939598" stroke-width="1.092" stroke-linecap="round"></path>
                </g>
            </g>
        </g>
    </g>
</svg>