<?xml version="1.0" encoding="UTF-8" standalone="no"?>
<svg width="23px" height="23px" viewBox="0 0 23 23" version="1.1" xmlns="http://www.w3.org/2000/svg" xmlns:xlink="http://www.w3.org/1999/xlink">
    <!-- Generator: Sketch 3.8.3 (29802) - http://www.bohemiancoding.com/sketch -->
    <title>Group 11</title>
    
    
    <g id="Symbols" stroke="none" stroke-width="1" fill="none" fill-rule="evenodd">
        <g id="auxiliary" transform="translate(-23.000000, -23.000000)">
            <g id="Group-12">
                <g>
                    <g id="Group-11" transform="translate(26.000000, 26.000000)">
                        <path d="M9.1660645,1.04258767 L10.7886306,5.13735722 C10.911124,5.44659741 11.2011226,5.65731023 11.5330404,5.67826984 L15.9288037,5.95598471 C16.7054261,6.00511954 17.021796,6.97888252 16.4223854,7.47504122 L13.0293334,10.2835434 C12.7731795,10.4955447 12.6623684,10.836482 12.7450042,11.1586072 L13.8391991,15.425091 C14.0325601,16.1788639 13.2042259,16.7806797 12.5470905,16.3638926 L8.8275324,14.0048195 C8.54672513,13.8267487 8.18826422,13.8267487 7.90737105,14.0048195 L4.18789882,16.3638926 C3.53076343,16.7806797 2.70242924,16.1788639 2.89570435,15.425091 L3.98989921,11.1586072 C4.07253506,10.836482 3.96180989,10.4955447 3.70557004,10.2835434 L0.312603908,7.47504122 C-0.28689255,6.97888252 0.0295632388,6.00511954 0.806099703,5.95598471 L5.20194893,5.67826984 C5.53386673,5.65731023 5.8238653,5.44659741 5.94635878,5.13735722 L7.56883894,1.04258767 C7.85548742,0.319137442 8.87941603,0.319137442 9.1660645,1.04258767" id="Fill-1" stroke="#00304B" stroke-width="6" fill="#00304B"></path>
                        <path d="M9.1660645,0.542587674 L10.7886306,4.63735722 C10.911124,4.94659741 11.2011226,5.15731023 11.5330404,5.17826984 L15.9288037,5.45598471 C16.7054261,5.50511954 17.021796,6.47888252 16.4223854,6.97504122 L13.0293334,9.7835434 C12.7731795,9.99554472 12.6623684,10.336482 12.7450042,10.6586072 L13.8391991,14.925091 C14.0325601,15.6788639 13.2042259,16.2806797 12.5470905,15.8638926 L8.8275324,13.5048195 C8.54672513,13.3267487 8.18826422,13.3267487 7.90737105,13.5048195 L4.18789882,15.8638926 C3.53076343,16.2806797 2.70242924,15.6788639 2.89570435,14.925091 L3.98989921,10.6586072 C4.07253506,10.336482 3.96180989,9.99554472 3.70557004,9.7835434 L0.312603908,6.97504122 C-0.28689255,6.47888252 0.0295632388,5.50511954 0.806099703,5.45598471 L5.20194893,5.17826984 C5.53386673,5.15731023 5.8238653,4.94659741 5.94635878,4.63735722 L7.56883894,0.542587674 C7.85548742,-0.180862558 8.87941603,-0.180862558 9.1660645,0.542587674" id="Fill-1" fill="#FFE983"></path>
                    </g>
                </g>
            </g>
        </g>
    </g>
</svg>