<?xml version="1.0" encoding="UTF-8" standalone="no"?>
<svg width="166px" height="27px" viewBox="0 0 166 27" version="1.1" xmlns="http://www.w3.org/2000/svg" xmlns:xlink="http://www.w3.org/1999/xlink">
    <g id="D1-Why-vote" stroke="none" stroke-width="1" fill="none" fill-rule="evenodd">
        <g id="D1.1_whyvote" transform="translate(-348.000000, -284.000000)" fill="#009DEE">
            <g id="nav-text" transform="translate(166.000000, 268.000000)">
                <path d="M340.6661,29.7459 C342.5831,29.7189 343.5421,29.7069 345.4601,29.6849 C345.9711,29.6789 346.3971,29.8389 346.7391,30.1629 C347.0801,30.4879 347.2851,30.9879 347.3541,31.6609 C347.4251,32.3339 347.3241,32.8369 347.0511,33.1689 C346.7781,33.4999 346.3861,33.6689 345.8741,33.6749 C342.7401,33.7109 341.1721,33.7319 338.0381,33.7819 C337.2881,33.7939 336.6831,33.5979 336.2221,33.1919 C335.7621,32.7859 335.4941,32.2139 335.4171,31.4729 C334.8891,26.3919 334.6251,23.8509 334.0971,18.7699 C334.0201,18.0279 334.1681,17.4489 334.5421,17.0289 C334.9171,16.6089 335.4801,16.3929 336.2301,16.3819 C339.3391,16.3319 340.8931,16.3109 344.0021,16.2749 C344.5221,16.2689 344.9531,16.4289 345.2941,16.7539 C345.6341,17.0789 345.8401,17.5789 345.9101,18.2519 C345.9801,18.9249 345.8781,19.4269 345.6061,19.7589 C345.3331,20.0909 344.9371,20.2589 344.4171,20.2659 C342.5251,20.2869 341.5791,20.2989 339.6871,20.3259 C339.7981,21.3919 339.8531,21.9249 339.9641,22.9899 C341.5441,22.9679 342.3331,22.9579 343.9131,22.9389 C344.4071,22.9329 344.8241,23.0949 345.1611,23.4229 C345.4981,23.7529 345.6991,24.2369 345.7661,24.8769 C345.8331,25.5169 345.7321,26.0049 345.4651,26.3409 C345.1961,26.6769 344.8141,26.8479 344.3201,26.8529 C342.7401,26.8719 341.9501,26.8819 340.3711,26.9049 C340.4891,28.0409 340.5481,28.6099 340.6661,29.7459 L340.6661,29.7459 Z M320.5691,20.9029 C320.0151,20.9159 319.5601,20.7569 319.2051,20.4249 C318.8501,20.0909 318.6351,19.5679 318.5611,18.8519 C318.4871,18.1359 318.5901,17.6049 318.8701,17.2549 C319.1491,16.9069 319.5701,16.7249 320.1331,16.7099 C324.6821,16.5969 326.9571,16.5469 331.5071,16.4629 C332.0691,16.4529 332.5271,16.6159 332.8761,16.9499 C333.2271,17.2849 333.4391,17.8109 333.5141,18.5269 C333.5881,19.2429 333.4831,19.7729 333.1991,20.1209 C332.9151,20.4659 332.4961,20.6449 331.9421,20.6549 C330.7511,20.6769 330.1561,20.6889 328.9641,20.7129 C329.4201,25.0969 329.6481,27.2889 330.1031,31.6729 C330.1811,32.4219 330.0201,33.0059 329.6191,33.4239 C329.2191,33.8409 328.5541,34.0589 327.6251,34.0789 C326.7051,34.0989 326.0051,33.9109 325.5231,33.5129 C325.0421,33.1139 324.7631,32.5399 324.6851,31.7909 C324.2291,27.4069 324.0021,25.2149 323.5461,20.8309 C322.3551,20.8589 321.7601,20.8729 320.5691,20.9029 L320.5691,20.9029 Z M307.1411,25.7989 C307.2281,26.6329 307.3971,27.3529 307.6481,27.9619 C307.8991,28.5709 308.2061,29.0709 308.5671,29.4649 C308.9291,29.8589 309.3331,30.1479 309.7791,30.3319 C310.2241,30.5159 310.6911,30.6009 311.1761,30.5869 C311.6531,30.5719 312.0921,30.4609 312.4941,30.2549 C312.8951,30.0489 313.2321,29.7409 313.5061,29.3309 C313.7791,28.9229 313.9771,28.4109 314.0961,27.7939 C314.2151,27.1789 314.2331,26.4589 314.1471,25.6339 C314.0601,24.8009 313.8911,24.0769 313.6391,23.4649 C313.3881,22.8499 313.0811,22.3449 312.7191,21.9459 C312.3571,21.5469 311.9531,21.2549 311.5081,21.0699 C311.0611,20.8849 310.5951,20.7999 310.1091,20.8149 C309.6331,20.8289 309.1931,20.9409 308.7921,21.1469 C308.3911,21.3539 308.0531,21.6649 307.7801,22.0789 C307.5061,22.4929 307.3101,23.0079 307.1901,23.6239 C307.0711,24.2409 307.0551,24.9659 307.1411,25.7989 L307.1411,25.7989 Z M301.6281,26.2669 C301.4781,24.8279 301.5561,23.5279 301.8621,22.3679 C302.1691,21.2079 302.6821,20.2169 303.3991,19.3929 C304.1171,18.5699 305.0221,17.9269 306.1091,17.4649 C307.1971,17.0029 308.4521,16.7479 309.8741,16.7049 C311.2451,16.6629 312.5021,16.8279 313.6421,17.2009 C314.7821,17.5739 315.7761,18.1289 316.6211,18.8659 C317.4671,19.6019 318.1491,20.5069 318.6721,21.5779 C319.1931,22.6489 319.5241,23.8579 319.6641,25.2049 C319.8121,26.6359 319.7321,27.9269 319.4261,29.0789 C319.1181,30.2309 318.6051,31.2149 317.8871,32.0329 C317.1691,32.8489 316.2631,33.4869 315.1711,33.9439 C314.0781,34.4019 312.8251,34.6529 311.4111,34.6959 C310.0401,34.7389 308.7841,34.5769 307.6441,34.2089 C306.5031,33.8409 305.5111,33.2939 304.6661,32.5679 C303.8211,31.8399 303.1391,30.9449 302.6181,29.8819 C302.0971,28.8199 301.7681,27.6149 301.6281,26.2669 L301.6281,26.2669 Z M285.5821,21.5379 C285.4461,21.2139 285.3471,20.9599 285.2851,20.7769 C285.2241,20.5939 285.1841,20.4139 285.1651,20.2369 C285.1241,19.8419 285.1811,19.4879 285.3371,19.1769 C285.4931,18.8649 285.7061,18.5999 285.9781,18.3799 C286.2511,18.1609 286.5571,17.9919 286.8951,17.8709 C287.2321,17.7509 287.5621,17.6829 287.8861,17.6689 C288.2771,17.6519 288.6211,17.6949 288.9131,17.7959 C289.2051,17.8979 289.4501,18.0339 289.6471,18.2029 C289.8631,18.3879 290.0381,18.6159 290.1731,18.8839 C290.3081,19.1539 290.4381,19.4469 290.5661,19.7619 C291.7981,22.9019 292.4141,24.4719 293.6461,27.6119 C293.7611,27.9029 293.8711,28.1989 293.9751,28.4989 C294.0791,28.7989 294.1691,29.0749 294.2461,29.3249 C294.3371,29.6169 294.4211,29.9009 294.5011,30.1769 C294.5211,30.1759 294.5311,30.1759 294.5521,30.1749 C294.5581,29.9049 294.5631,29.6159 294.5801,29.3239 C294.5931,29.0819 294.6191,28.7989 294.6471,28.4849 C294.6741,28.1709 294.7101,27.8649 294.7571,27.5679 C295.2451,24.3529 295.4891,22.7459 295.9781,19.5319 C296.0231,19.2259 296.0861,18.9299 296.1681,18.6429 C296.2491,18.3569 296.3821,18.1089 296.5641,17.8989 C296.7251,17.7149 296.9431,17.5659 297.2171,17.4499 C297.4911,17.3329 297.7991,17.2689 298.1391,17.2559 C298.4541,17.2449 298.7851,17.2809 299.1311,17.3649 C299.4771,17.4489 299.7981,17.5819 300.0891,17.7609 C300.3811,17.9399 300.6301,18.1659 300.8381,18.4379 C301.0461,18.7089 301.1691,19.0299 301.2081,19.4009 C301.2231,19.5429 301.2181,19.7119 301.1951,19.9009 C301.1721,20.0919 301.1301,20.3449 301.0691,20.6599 C300.1631,25.0729 299.7101,27.2799 298.8031,31.6949 C298.7011,32.1979 298.5741,32.6339 298.4201,33.0029 C298.2661,33.3729 298.0671,33.6969 297.8221,33.9769 C297.5631,34.2749 297.1941,34.5279 296.7161,34.7369 C296.2391,34.9449 295.5811,35.0659 294.7471,35.0999 C293.9131,35.1329 293.2361,35.0659 292.7191,34.8979 C292.2021,34.7299 291.7831,34.5079 291.4641,34.2329 C291.1641,33.9759 290.8991,33.6699 290.6701,33.3159 C290.4411,32.9619 290.2241,32.5389 290.0191,32.0499 C288.2441,27.8439 287.3571,25.7409 285.5821,21.5379 L285.5821,21.5379 Z M267.9491,27.5189 C268.0361,28.3519 268.2051,29.0709 268.4561,29.6749 C268.7061,30.2799 269.0131,30.7749 269.3741,31.1619 C269.7351,31.5479 270.1381,31.8289 270.5841,32.0039 C271.0291,32.1789 271.4941,32.2539 271.9801,32.2279 C272.4551,32.2029 272.8941,32.0819 273.2951,31.8669 C273.6961,31.6519 274.0331,31.3349 274.3061,30.9189 C274.5791,30.5039 274.7761,29.9859 274.8951,29.3649 C275.0141,28.7459 275.0311,28.0239 274.9461,27.1989 C274.8591,26.3649 274.6901,25.6439 274.4381,25.0359 C274.1871,24.4249 273.8801,23.9249 273.5191,23.5339 C273.1571,23.1419 272.7541,22.8579 272.3091,22.6829 C271.8631,22.5069 271.3971,22.4319 270.9121,22.4569 C270.4361,22.4829 269.9971,22.6039 269.5971,22.8199 C269.1961,23.0359 268.8591,23.3549 268.5861,23.7759 C268.3131,24.1969 268.1171,24.7179 267.9981,25.3379 C267.8781,25.9589 267.8621,26.6849 267.9491,27.5189 L267.9491,27.5189 Z M262.4431,28.1099 C262.2931,26.6699 262.3711,25.3659 262.6761,24.1959 C262.9831,23.0259 263.4951,22.0209 264.2111,21.1799 C264.9271,20.3399 265.8301,19.6749 266.9171,19.1879 C268.0041,18.6999 269.2571,18.4189 270.6771,18.3429 C272.0461,18.2709 273.3011,18.4089 274.4401,18.7579 C275.5791,19.1059 276.5721,19.6409 277.4161,20.3609 C278.2611,21.0799 278.9431,21.9719 279.4641,23.0339 C279.9851,24.0959 280.3161,25.2999 280.4561,26.6469 C280.6041,28.0779 280.5251,29.3749 280.2181,30.5359 C279.9121,31.6959 279.3991,32.6939 278.6821,33.5299 C277.9651,34.3639 277.0611,35.0229 275.9691,35.5049 C274.8781,35.9889 273.6261,36.2669 272.2141,36.3419 C270.8451,36.4149 269.5911,36.2799 268.4521,35.9359 C267.3131,35.5929 266.3221,35.0659 265.4781,34.3569 C264.6341,33.6469 263.9531,32.7639 263.4321,31.7109 C262.9121,30.6569 262.5831,29.4569 262.4431,28.1099 L262.4431,28.1099 Z M249.3361,24.1139 C248.7841,24.1499 248.3301,24.0079 247.9761,23.6889 C247.6221,23.3679 247.4071,22.8509 247.3331,22.1349 C247.2591,21.4199 247.3611,20.8819 247.6411,20.5189 C247.9191,20.1579 248.3391,19.9589 248.9001,19.9219 C253.4381,19.6259 255.7081,19.4849 260.2481,19.2179 C260.8091,19.1849 261.2661,19.3299 261.6151,19.6519 C261.9641,19.9749 262.1771,20.4939 262.2511,21.2099 C262.3251,21.9259 262.2211,22.4629 261.9371,22.8229 C261.6541,23.1819 261.2361,23.3779 260.6841,23.4099 C259.4951,23.4799 258.9011,23.5159 257.7121,23.5879 C258.1681,27.9719 258.3961,30.1639 258.8521,34.5479 C258.9291,35.2969 258.7691,35.8889 258.3691,36.3249 C257.9691,36.7599 257.3061,37.0059 256.3801,37.0629 C255.4621,37.1199 254.7631,36.9589 254.2821,36.5789 C253.8021,36.1969 253.5231,35.6319 253.4461,34.8829 C252.9901,30.4989 252.7621,28.3069 252.3061,23.9229 C251.1181,23.9979 250.5241,24.0369 249.3361,24.1139 L249.3361,24.1139 Z M217.6841,25.6359 C217.5831,25.3219 217.5141,25.0879 217.4761,24.9339 C217.4381,24.7799 217.4151,24.6439 217.4021,24.5259 C217.3621,24.1389 217.4151,23.7869 217.5621,23.4749 C217.7091,23.1619 217.9131,22.8919 218.1711,22.6669 C218.4301,22.4409 218.7291,22.2639 219.0661,22.1339 C219.4041,22.0049 219.7421,21.9259 220.0811,21.8979 C220.4631,21.8669 220.8121,21.8959 221.1241,21.9849 C221.4361,22.0739 221.6971,22.2039 221.9031,22.3739 C222.1751,22.5989 222.3771,22.8659 222.5061,23.1719 C222.6361,23.4799 222.7461,23.7799 222.8361,24.0689 C223.7661,27.1169 224.2311,28.6409 225.1611,31.6879 C225.2631,32.0109 225.3491,32.3209 225.4181,32.6159 C225.4881,32.9119 225.5461,33.1789 225.5971,33.4109 C225.6581,33.6839 225.7121,33.9399 225.7551,34.1749 C225.7751,34.1729 225.7851,34.1729 225.8051,34.1709 C225.7971,33.9259 225.7971,33.6599 225.8001,33.3819 C225.8031,33.1459 225.8071,32.8719 225.8181,32.5659 C225.8291,32.2589 225.8511,31.9389 225.8851,31.6059 C226.1661,28.6349 226.3071,27.1499 226.5881,24.1799 C226.6811,23.1799 227.0001,22.4399 227.5441,21.9599 C228.0891,21.4809 228.8671,21.2029 229.8781,21.1259 C230.8971,21.0479 231.7241,21.2049 232.3591,21.5939 C232.9951,21.9839 233.4621,22.6729 233.7611,23.6599 C234.6271,26.5429 235.0591,27.9839 235.9241,30.8679 C236.0161,31.1829 236.1041,31.4909 236.1871,31.7899 C236.2691,32.0889 236.3431,32.3619 236.4001,32.6009 C236.4641,32.8729 236.5241,33.1429 236.5851,33.4019 C236.6061,33.4009 236.6161,33.3999 236.6361,33.3979 C236.6271,33.1359 236.6261,32.8629 236.6281,32.5849 C236.6301,32.3409 236.6331,32.0649 236.6401,31.7629 C236.6471,31.4619 236.6631,31.1529 236.6901,30.8369 C236.9221,27.7009 237.0371,26.1319 237.2691,22.9959 C237.2961,22.6729 237.3351,22.3539 237.3881,22.0399 C237.4411,21.7269 237.5671,21.4529 237.7651,21.2179 C237.9631,20.9839 238.2111,20.7979 238.5091,20.6619 C238.8061,20.5269 239.1351,20.4459 239.4911,20.4209 C239.8231,20.3979 240.1591,20.4229 240.5001,20.4959 C240.8421,20.5699 241.1551,20.6929 241.4371,20.8629 C241.7201,21.0339 241.9571,21.2499 242.1461,21.5069 C242.3351,21.7659 242.4491,22.0719 242.4861,22.4249 C242.4931,22.4919 242.4971,22.5599 242.5001,22.6279 C242.5031,22.6949 242.5021,22.7709 242.4981,22.8569 C242.4941,22.9419 242.4841,23.0399 242.4701,23.1509 C242.4571,23.2629 242.4411,23.3949 242.4221,23.5489 C241.8931,27.9809 241.6281,30.1969 241.0991,34.6299 C241.0371,35.1849 240.9361,35.6719 240.7951,36.0889 C240.6541,36.5059 240.4591,36.8629 240.2071,37.1609 C239.9171,37.5039 239.5251,37.7759 239.0341,37.9759 C238.5411,38.1769 237.9301,38.3039 237.1991,38.3569 C236.4681,38.4109 235.8481,38.3729 235.3391,38.2449 C234.8301,38.1179 234.3961,37.9059 234.0411,37.6109 C233.7311,37.3539 233.4771,37.0269 233.2771,36.6309 C233.0771,36.2339 232.8941,35.7619 232.7261,35.2149 C231.9371,32.6119 231.5411,31.3109 230.7511,28.7079 C230.6751,28.4599 230.6051,28.2009 230.5431,27.9349 C230.4821,27.6689 230.4261,27.4199 230.3761,27.1969 C230.3161,26.9319 230.2661,26.6709 230.2311,26.4189 C230.2111,26.4209 230.2001,26.4209 230.1801,26.4229 C230.1891,26.6769 230.1931,26.9419 230.1981,27.2109 C230.2021,27.4369 230.2051,27.6919 230.2001,27.9669 C230.1941,28.2439 230.1791,28.5139 230.1551,28.7789 C229.9151,31.4499 229.7951,32.7859 229.5551,35.4569 C229.5021,36.0209 229.4191,36.5139 229.3041,36.9339 C229.1901,37.3529 229.0061,37.7139 228.7551,38.0129 C228.4661,38.3579 228.0821,38.6319 227.6071,38.8339 C227.1331,39.0369 226.5301,39.1679 225.8001,39.2249 C225.0701,39.2839 224.4411,39.2499 223.9161,39.1269 C223.3911,39.0039 222.9481,38.7959 222.5931,38.5029 C222.2831,38.2479 222.0171,37.9259 221.7921,37.5369 C221.5681,37.1469 221.3681,36.6829 221.1921,36.1459 C219.7891,31.9419 219.0871,29.8399 217.6841,25.6359 L217.6841,25.6359 Z M205.4751,32.0599 C205.5621,32.8939 205.7301,33.6089 205.9801,34.2069 C206.2311,34.8049 206.5361,35.2909 206.8961,35.6669 C207.2571,36.0419 207.6591,36.3089 208.1041,36.4689 C208.5471,36.6289 209.0111,36.6879 209.4961,36.6449 C209.9701,36.6039 210.4081,36.4669 210.8071,36.2369 C211.2071,36.0069 211.5431,35.6779 211.8151,35.2499 C212.0871,34.8239 212.2841,34.2969 212.4031,33.6699 C212.5211,33.0439 212.5381,32.3189 212.4521,31.4939 C212.3661,30.6609 212.1971,29.9419 211.9461,29.3399 C211.6951,28.7369 211.3891,28.2459 211.0281,27.8659 C210.6681,27.4849 210.2651,27.2139 209.8211,27.0539 C209.3761,26.8929 208.9121,26.8339 208.4281,26.8769 C207.9541,26.9189 207.5161,27.0559 207.1171,27.2859 C206.7171,27.5169 206.3811,27.8489 206.1091,28.2809 C205.8371,28.7139 205.6421,29.2429 205.5231,29.8699 C205.4041,30.4969 205.3881,31.2269 205.4751,32.0599 L205.4751,32.0599 Z M199.9841,32.8459 C199.8351,31.4069 199.9121,30.0949 200.2171,28.9099 C200.5221,27.7249 201.0321,26.6989 201.7461,25.8289 C202.4601,24.9609 203.3601,24.2619 204.4431,23.7359 C205.5271,23.2079 206.7761,22.8809 208.1931,22.7559 C209.5581,22.6349 210.8101,22.7299 211.9461,23.0399 C213.0821,23.3499 214.0721,23.8509 214.9141,24.5439 C215.7571,25.2369 216.4371,26.1079 216.9581,27.1559 C217.4771,28.2029 217.8071,29.3999 217.9471,30.7469 C218.0961,32.1779 218.0171,33.4819 217.7121,34.6579 C217.4061,35.8339 216.8951,36.8529 216.1801,37.7169 C215.4651,38.5789 214.5631,39.2719 213.4751,39.7949 C212.3871,40.3179 211.1391,40.6419 209.7311,40.7659 C208.3661,40.8869 207.1141,40.7959 205.9791,40.4909 C204.8431,40.1859 203.8541,39.6919 203.0131,39.0099 C202.1711,38.3269 201.4911,37.4649 200.9721,36.4259 C200.4531,35.3869 200.1241,34.1939 199.9841,32.8459 L199.9841,32.8459 Z M189.1051,40.1499 C189.1831,40.8989 189.0251,41.4999 188.6311,41.9529 C188.2371,42.4039 187.5781,42.6769 186.6561,42.7709 C185.7321,42.8649 185.0311,42.7309 184.5521,42.3679 C184.0731,42.0039 183.7961,41.4469 183.7181,40.6979 C183.1821,35.5359 182.9131,32.9549 182.3771,27.7929 C182.2991,27.0449 182.4581,26.4429 182.8571,25.9879 C183.2541,25.5349 183.9111,25.2619 184.8261,25.1689 C185.7491,25.0749 186.4501,25.2099 186.9291,25.5739 C187.4081,25.9389 187.6871,26.4959 187.7641,27.2449 C187.9421,28.9519 188.0311,29.8059 188.2081,31.5129 C190.1041,31.3229 191.0521,31.2289 192.9481,31.0449 C192.7711,29.3379 192.6821,28.4839 192.5051,26.7769 C192.4271,26.0279 192.5851,25.4269 192.9791,24.9759 C193.3731,24.5259 194.0331,24.2559 194.9561,24.1669 C195.8721,24.0789 196.5711,24.2189 197.0541,24.5849 C197.5371,24.9519 197.8181,25.5099 197.8951,26.2589 C198.4321,31.4209 198.7001,34.0019 199.2371,39.1639 C199.3141,39.9129 199.1561,40.5129 198.7631,40.9629 C198.3681,41.4119 197.7081,41.6809 196.7851,41.7689 C195.8621,41.8579 195.1591,41.7199 194.6811,41.3549 C194.2031,40.9889 193.9241,40.4299 193.8461,39.6819 C193.6651,37.9339 193.5741,37.0599 193.3921,35.3119 C191.4951,35.4969 190.5471,35.5909 188.6511,35.7809 L189.1051,40.1499 Z" id="howtovote"></path>
            </g>
        </g>
    </g>
</svg>