<?xml version="1.0" encoding="UTF-8" standalone="no"?>
<svg width="35px" height="35px" viewBox="0 0 35 35" version="1.1" xmlns="http://www.w3.org/2000/svg" xmlns:xlink="http://www.w3.org/1999/xlink">
    <!-- Generator: Sketch 3.8.3 (29802) - http://www.bohemiancoding.com/sketch -->
    <title>Group 2</title>
    <desc>Created with Sketch.</desc>
    <defs></defs>
    <g id="Symbols" stroke="none" stroke-width="1" fill="none" fill-rule="evenodd">
        <g id="D-legend" transform="translate(-19.000000, -385.000000)">
            <g id="Group-2" transform="translate(20.000000, 386.000000)">
                <path d="M33,16.5 C33,25.613 25.613,33 16.5,33 C7.387,33 0,25.613 0,16.5 C0,7.387 7.387,0 16.5,0 C25.613,0 33,7.387 33,16.5" id="Fill-9" fill="#00B4FF"></path>
                <path d="M33,16.5 C33,25.613 25.613,33 16.5,33 C7.387,33 0,25.613 0,16.5 C0,7.387 7.387,0 16.5,0 C25.613,0 33,7.387 33,16.5 L33,16.5 Z" id="Stroke-10" stroke="#00304B" stroke-width="2"></path>
                <polygon id="Fill-5" fill="#FFFFFF" points="25 15 16.5 6.5 8 15 10 17 10 24 15 24 15 18 18 18 18 24 23 24 23 17"></polygon>
            </g>
        </g>
    </g>
</svg>