<?xml version="1.0" encoding="UTF-8" standalone="no"?>
<svg width="148px" height="66px" viewBox="0 0 148 66" version="1.1" xmlns="http://www.w3.org/2000/svg" xmlns:xlink="http://www.w3.org/1999/xlink">
    <!-- Generator: Sketch 3.8.3 (29802) - http://www.bohemiancoding.com/sketch -->
    <title>whyvote-panel</title>
    
    
    <g id="D1-Why-vote" stroke="none" stroke-width="1" fill="none" fill-rule="evenodd">
        <g id="D1.1_whyvote" transform="translate(-166.000000, -286.000000)" fill="#E4647B">
            <g id="nav-text" transform="translate(166.000000, 268.000000)">
                <path d="M145.1175,30.1722 C145.5305,32.7152 145.6105,35.4352 145.8455,38.0862 C145.4665,39.8782 146.2945,41.4792 146.2375,43.2522 C146.1875,44.8492 146.4465,46.5152 146.7785,47.9682 C147.3275,50.3642 147.4685,52.7792 147.7055,55.2032 C147.9265,57.4522 147.6875,58.2132 146.5485,59.0092 C145.7485,59.5672 144.9135,59.9132 144.0225,60.0302 C141.6335,60.3442 139.2345,60.5282 136.8505,60.8882 C134.4505,61.2492 132.0455,61.5542 129.6395,61.9182 C127.2345,62.2812 124.8255,62.7142 122.4135,63.1792 C120.0015,63.6432 117.5885,64.1062 115.1755,64.5392 C112.7635,64.9722 110.3535,65.3532 107.9485,65.6562 C105.5435,65.9592 103.1425,66.1912 100.7475,66.3852 C98.3525,66.5792 95.9605,66.7532 93.5695,66.9382 C91.7055,67.0822 89.8025,66.9782 87.9855,67.5322 C86.0675,68.1162 84.0955,68.1392 82.1805,68.7142 C80.5435,69.2062 78.8525,68.9402 77.2305,69.4422 C74.2885,70.3532 71.2625,70.4822 68.3245,71.3282 C62.2975,73.0662 56.1705,73.3902 50.1615,74.5982 C47.8155,75.0712 45.4355,75.4442 43.1245,75.8642 C42.0635,76.0562 40.9435,76.0332 39.8655,76.2072 C38.7595,76.3852 37.6325,76.3832 36.5785,76.8782 C34.4995,76.7112 32.7635,77.2772 31.0085,77.6262 C27.9885,78.2272 24.9075,79.0622 21.7975,79.8262 C20.0305,80.2602 18.3435,80.8932 16.6005,81.0822 C15.6905,81.1812 14.7275,81.0272 13.8405,81.6102 C13.3115,81.9582 12.5165,81.2442 11.9375,81.6562 C11.1715,82.2022 10.3375,82.2032 9.5205,82.5132 C8.6165,82.8552 7.6905,83.0002 6.7425,82.9942 C5.6685,82.9882 4.7915,81.8862 4.5855,80.0972 C4.4865,79.2362 4.3905,78.3772 4.3315,77.5002 C4.2595,76.4132 4.2085,75.2862 3.8805,74.1962 C3.6295,73.3592 3.5245,72.3022 3.5385,71.3302 C3.5515,70.4512 3.4825,69.5752 3.3865,68.6012 C3.0255,64.9252 2.5605,60.9762 2.4315,57.0922 C2.3805,55.5582 1.4225,49.0242 1.2635,48.2522 C0.5415,44.7472 1.3025,42.2722 3.5615,42.0212 C5.7365,41.7792 8.1685,41.1182 10.5195,40.7322 C13.6705,40.2152 16.6775,39.0882 19.7065,39.1362 C19.9475,39.1392 20.1655,39.0122 20.3875,38.8532 C21.4285,38.1082 22.5365,37.8712 23.6915,38.0312 C23.8505,38.0532 24.0125,38.0182 24.1705,37.9712 C26.9555,37.1562 29.8065,36.9122 32.5815,35.9462 C33.8295,35.5122 35.1065,35.7032 36.3515,35.3902 C37.5625,35.0862 38.7855,34.8972 40.0075,34.7282 C42.2375,34.4192 44.5105,34.5902 46.7415,34.0322 C48.9765,33.4732 51.2795,33.2302 53.5515,32.8522 C55.0265,32.6062 56.5425,32.6222 57.9655,32.0472 C59.6025,31.3842 61.2775,31.2602 62.9375,30.9132 C63.9175,30.7092 64.9045,30.3882 65.8925,30.4912 C66.9065,30.5962 67.9045,30.4942 68.8995,30.3592 C69.8945,30.2252 70.8865,30.0572 71.8845,30.0162 C79.8645,28.2942 88.4385,27.0472 96.0275,26.4362 C96.8015,26.3742 97.6535,26.2132 98.4655,26.0942 C100.9025,25.7372 103.3375,25.3212 105.7475,24.7732 C106.5445,24.5912 107.3475,24.4352 108.1515,24.2942 C113.7755,23.3052 119.7095,23.2772 125.0965,22.1542 C125.9075,21.9852 126.7655,21.7512 127.6165,21.5592 C131.8715,20.5962 136.2545,19.8422 140.3845,19.7752 C141.1085,19.7632 141.8385,20.0502 142.5775,19.9102 C143.3075,19.7732 144.3275,21.9532 144.4675,23.5522 C144.5365,24.3472 144.5455,25.1592 144.5785,25.9612 C144.6385,27.4152 144.8885,28.7662 145.1175,30.1722 Z" id="whyvote-panel" transform="translate(74.389989, 51.384606) rotate(-0.750000) translate(-74.389989, -51.384606) "></path>
            </g>
        </g>
    </g>
</svg>