<svg width="306px" height="39px" viewBox="0 0 306 39" version="1.1" xmlns="http://www.w3.org/2000/svg" xmlns:xlink="http://www.w3.org/1999/xlink" preserveAspectRatio="none">
    <g id="D3-Candidates" stroke="none" stroke-width="1" fill="none" fill-rule="evenodd">
        <g id="D3.4_candidates-mayoral-local" transform="translate(-519.000000, -515.000000)" fill="#E4647B">
            <path d="M823.888874,521.210833 C823.737332,522.525584 824.016516,523.76157 824.233659,525.046834 C824.626246,527.372185 824.288072,529.823155 824.287055,532.228077 C823.161673,533.799315 824.595226,535.320063 824.148226,536.906246 C823.745468,538.336112 823.977868,539.858476 824.403001,541.19625 C825.104267,543.403253 824.951707,545.586425 824.997983,547.78737 C825.041209,549.829575 824.401984,550.488768 821.873052,551.087373 C820.097766,551.507447 818.290951,551.731621 816.405313,551.744546 C811.356604,551.779687 806.308912,551.693249 801.260203,551.760703 C796.176914,551.828561 791.092608,551.839871 785.997623,551.900054 C780.902638,551.959834 775.785785,552.077374 770.657237,552.217937 C765.528688,552.3585 760.39658,552.492601 755.2721,552.596003 C750.14762,552.699406 745.037887,552.751108 739.951547,552.7297 C734.864698,552.708696 729.80175,552.619027 724.755584,552.492197 C719.709926,552.365771 714.672914,552.217533 709.635901,552.073739 C705.709015,551.961854 701.745005,551.62014 697.842528,551.875819 C693.719348,552.145636 689.58854,551.902882 685.47248,552.158965 C681.95547,552.377888 678.465413,551.909748 674.97739,552.135134 C668.649213,552.544706 662.290017,552.236921 655.980148,552.575808 C643.03444,553.271757 630.08975,552.676383 617.14862,552.900961 C612.093809,552.988611 607.036963,552.956298 601.980626,553.036273 C599.65104,553.045967 597.309757,552.880361 594.982713,552.883189 C592.595662,552.886016 590.196915,552.723237 587.85665,553.016885 C587.696462,553.037081 587.522544,553.029811 587.356762,553.01123 C583.45276,552.560863 579.6586,552.825428 575.856813,552.882381 C569.312002,552.980533 562.596324,553.268122 555.844032,553.475735 C552.007664,553.593679 548.309617,553.896617 544.583092,553.787559 C542.636939,553.730607 540.634338,553.434939 538.645469,553.81341 C537.46008,554.039199 535.924312,553.266506 534.622469,553.539554 C532.898545,553.901464 531.1436,553.762516 529.363228,553.900656 C527.3947,554.05374 525.422103,554.023851 523.43425,553.85259 C521.183486,553.659113 519.566862,552.5132 519.501769,550.865622 C519.47024,550.072733 519.449391,549.281055 519.510414,548.478068 C519.586694,547.483624 519.720438,546.455251 519.26937,545.409106 C518.92306,544.606522 518.932213,543.630255 519.174275,542.751735 C519.393452,541.956018 519.440237,541.148992 519.455493,540.247045 C519.514483,536.843639 519.42193,533.172436 520.012336,529.622812 C520.247278,528.221219 519.663483,522.139035 519.492616,521.416023 C518.717104,518.132177 520.816325,516.048368 525.604666,516.217609 C530.214003,516.379984 535.327804,516.263656 540.458386,516.262444 C547.361204,516.413509 553.709721,515.830253 560.057222,516.37231 C560.56372,516.415529 561.0453,516.337169 561.542136,516.23215 C563.871723,515.738968 566.243518,515.709078 568.636671,516.04029 C568.965691,516.085529 569.313527,516.080278 569.652718,516.064929 C575.651874,515.791881 581.674931,516.032615 587.674087,515.610522 C590.37185,515.420681 593.013676,515.792285 595.681945,515.707866 C598.276477,515.626275 600.874568,515.647278 603.4691,515.685651 C608.200485,515.755528 612.904918,516.270523 617.710548,516.094819 C622.53296,515.946177 627.368085,516.060082 632.197108,516.057658 C635.33221,516.056043 638.505452,516.292738 641.592243,515.985357 C645.145358,515.631526 648.675589,515.761587 652.214974,515.688478 C654.305551,515.645663 656.432233,515.499445 658.483144,515.730889 C660.586433,515.967989 662.6943,516.016863 664.802675,516.035443 C666.91105,516.054023 669.018916,516.042309 671.114578,516.143289 C688.141257,515.706654 705.431356,515.302737 722.302933,516.126324 C724.023806,516.129959 725.745188,516.130363 727.466061,516.125112 C732.62919,516.108552 737.790793,516.03827 742.941208,515.834292 C744.644792,515.769665 746.349901,515.724427 748.056026,515.694133 C760.000434,515.480057 771.992643,515.986973 783.881111,515.728062 C785.656398,515.6392 787.444397,515.550742 789.258332,515.471171 C798.330549,515.073716 807.459212,514.77401 816.273094,515.227609 C817.823101,515.278906 819.259196,515.624255 820.830053,515.574169 C822.382093,515.524892 824.108052,517.586081 824.103984,519.036547 C824.10195,519.757539 823.965663,520.485802 823.888874,521.210833" id="Fill-1"></path>
        </g>
    </g>
</svg>