<?xml version="1.0" encoding="UTF-8" standalone="no"?>
<svg width="104px" height="36px" viewBox="0 0 104 36" version="1.1" xmlns="http://www.w3.org/2000/svg" xmlns:xlink="http://www.w3.org/1999/xlink">
    <!-- Generator: Sketch 3.8.3 (29802) - http://www.bohemiancoding.com/sketch -->
    <title>updates</title>
    
    
    <g id="D1-Why-vote" stroke="none" stroke-width="1" fill="none" fill-rule="evenodd">
        <g id="D1.1_whyvote" transform="translate(-1130.000000, -297.000000)" fill="#009DEE">
            <g id="nav-text" transform="translate(166.000000, 268.000000)">
                <path d="M1054.7487,50.6209 C1054.8407,49.8229 1055.0717,49.1129 1055.4417,48.4939 C1055.8117,47.8749 1056.3187,47.3799 1056.9597,47.0089 C1057.6007,46.6379 1058.3777,46.4079 1059.2907,46.3199 C1060.2027,46.2319 1061.2427,46.3139 1062.4107,46.5679 C1062.9697,46.6899 1063.4747,46.8349 1063.9257,47.0019 C1064.3767,47.1689 1064.7777,47.3499 1065.1267,47.5419 C1065.4757,47.7349 1065.7737,47.9359 1066.0197,48.1459 C1066.2647,48.3549 1066.4647,48.5669 1066.6187,48.7819 C1066.8397,49.0889 1066.9807,49.3769 1067.0407,49.6439 C1067.0997,49.9099 1067.1087,50.2089 1067.0707,50.5369 C1067.0047,51.1169 1066.7957,51.5199 1066.4457,51.7439 C1066.0957,51.9679 1065.6737,52.0269 1065.1817,51.9179 C1064.9227,51.8619 1064.6917,51.7739 1064.4877,51.6569 C1064.2827,51.5379 1064.0607,51.4119 1063.8187,51.2779 C1063.5777,51.1419 1063.3037,51.0049 1062.9937,50.8649 C1062.6857,50.7239 1062.2977,50.6029 1061.8307,50.5009 C1061.5127,50.4319 1061.2487,50.4009 1061.0327,50.4059 C1060.8187,50.4109 1060.6407,50.4409 1060.4977,50.4969 C1060.3537,50.5519 1060.2487,50.6349 1060.1807,50.7449 C1060.1117,50.8549 1060.0697,50.9769 1060.0547,51.1119 C1060.0217,51.3979 1060.1007,51.6589 1060.2917,51.8929 C1060.4827,52.1289 1060.7447,52.3579 1061.0787,52.5799 C1061.4117,52.8039 1061.7967,53.0319 1062.2307,53.2649 C1062.6657,53.4969 1063.1057,53.7549 1063.5527,54.0379 C1063.9987,54.3209 1064.4327,54.6379 1064.8537,54.9889 C1065.2757,55.3399 1065.6387,55.7469 1065.9447,56.2119 C1066.2497,56.6759 1066.4777,57.2059 1066.6267,57.8039 C1066.7767,58.4019 1066.8067,59.0879 1066.7177,59.8609 C1066.6217,60.7019 1066.3797,61.4439 1065.9937,62.0869 C1065.6067,62.7299 1065.0827,63.2419 1064.4197,63.6219 C1063.7557,64.0019 1062.9497,64.2369 1062.0047,64.3279 C1061.0597,64.4189 1059.9717,64.3299 1058.7447,64.0649 C1058.1517,63.9369 1057.6137,63.7859 1057.1287,63.6129 C1056.6447,63.4399 1056.2177,63.2549 1055.8527,63.0609 C1055.4857,62.8659 1055.1777,62.6669 1054.9267,62.4629 C1054.6757,62.2579 1054.4847,62.0649 1054.3527,61.8809 C1054.1237,61.5649 1053.9707,61.2719 1053.8947,61.0029 C1053.8197,60.7319 1053.8007,60.4199 1053.8417,60.0669 C1053.9107,59.4699 1054.1237,59.0549 1054.4787,58.8199 C1054.8357,58.5859 1055.2557,58.5199 1055.7407,58.6239 C1055.9987,58.6789 1056.2327,58.7659 1056.4417,58.8839 C1056.6507,59.0019 1056.8827,59.1339 1057.1337,59.2769 C1057.3867,59.4219 1057.6847,59.5689 1058.0267,59.7159 C1058.3687,59.8619 1058.8027,59.9929 1059.3287,60.1069 C1059.6867,60.1839 1059.9957,60.2209 1060.2517,60.2159 C1060.5087,60.2109 1060.7207,60.1729 1060.8877,60.1019 C1061.0537,60.0299 1061.1787,59.9279 1061.2617,59.7959 C1061.3457,59.6629 1061.3977,59.5119 1061.4167,59.3439 C1061.4517,59.0419 1061.3737,58.7659 1061.1847,58.5179 C1060.9957,58.2699 1060.7337,58.0299 1060.4017,57.7989 C1060.0687,57.5669 1059.6857,57.3359 1059.2497,57.1039 C1058.8147,56.8709 1058.3737,56.6149 1057.9277,56.3339 C1057.4807,56.0519 1057.0467,55.7369 1056.6247,55.3889 C1056.2037,55.0399 1055.8387,54.6389 1055.5317,54.1859 C1055.2247,53.7329 1054.9957,53.2149 1054.8447,52.6309 C1054.6937,52.0479 1054.6617,51.3779 1054.7487,50.6209 L1054.7487,50.6209 Z M1046.7547,57.2079 C1048.6347,57.5989 1049.5747,57.7959 1051.4537,58.1919 C1051.9557,58.2979 1052.3367,58.5459 1052.5997,58.9379 C1052.8627,59.3289 1052.9557,59.8619 1052.8777,60.5339 C1052.8007,61.2069 1052.5927,61.6749 1052.2547,61.9399 C1051.9157,62.2039 1051.4967,62.2829 1050.9957,62.1769 C1047.9237,61.5289 1046.3877,61.2099 1043.3127,60.5769 C1042.5767,60.4259 1042.0267,60.1029 1041.6647,59.6069 C1041.3027,59.1109 1041.1647,58.4939 1041.2497,57.7539 C1041.8327,52.6779 1042.1247,50.1409 1042.7077,45.0649 C1042.7927,44.3249 1043.0637,43.7909 1043.5207,43.4629 C1043.9777,43.1339 1044.5747,43.0459 1045.3107,43.1969 C1048.3607,43.8249 1049.8837,44.1419 1052.9307,44.7839 C1053.4397,44.8919 1053.8267,45.1409 1054.0897,45.5329 C1054.3517,45.9239 1054.4447,46.4569 1054.3677,47.1289 C1054.2907,47.8019 1054.0817,48.2699 1053.7447,48.5349 C1053.4067,48.7989 1052.9817,48.8769 1052.4727,48.7699 C1050.6187,48.3789 1049.6907,48.1849 1047.8357,47.7989 C1047.7137,48.8639 1047.6527,49.3959 1047.5307,50.4609 C1049.0797,50.7819 1049.8537,50.9439 1051.4017,51.2699 C1051.8867,51.3719 1052.2577,51.6199 1052.5167,52.0149 C1052.7747,52.4099 1052.8667,52.9259 1052.7927,53.5659 C1052.7197,54.2049 1052.5167,54.6589 1052.1817,54.9289 C1051.8467,55.1979 1051.4367,55.2819 1050.9527,55.1799 C1049.4047,54.8539 1048.6297,54.6919 1047.0807,54.3709 C1046.9507,55.5059 1046.8847,56.0729 1046.7547,57.2079 L1046.7547,57.2079 Z M1029.0197,44.2179 C1028.4767,44.1119 1028.0647,43.8579 1027.7907,43.4579 C1027.5157,43.0559 1027.4187,42.4979 1027.5017,41.7829 C1027.5837,41.0679 1027.7997,40.5709 1028.1487,40.2899 C1028.4977,40.0099 1028.9487,39.9229 1029.5017,40.0309 C1033.9747,40.9029 1036.2087,41.3469 1040.6757,42.2509 C1041.2267,42.3629 1041.6397,42.6219 1041.9097,43.0239 C1042.1797,43.4269 1042.2727,43.9869 1042.1907,44.7019 C1042.1087,45.4169 1041.8917,45.9119 1041.5387,46.1889 C1041.1857,46.4649 1040.7377,46.5489 1040.1937,46.4389 C1039.0247,46.2019 1038.4397,46.0839 1037.2697,45.8499 C1036.7667,50.2289 1036.5147,52.4179 1036.0117,56.7969 C1035.9257,57.5449 1035.6417,58.0799 1035.1597,58.4009 C1034.6777,58.7219 1033.9797,58.7909 1033.0677,58.6099 C1032.1647,58.4299 1031.5197,58.0939 1031.1357,57.6009 C1030.7507,57.1079 1030.6027,56.4869 1030.6887,55.7389 C1031.1917,51.3609 1031.4437,49.1709 1031.9467,44.7919 C1030.7767,44.5609 1030.1907,44.4469 1029.0197,44.2179 L1029.0197,44.2179 Z M1021.6467,48.9469 C1021.4087,47.5299 1021.2887,46.8219 1021.0497,45.4059 C1020.9887,45.0499 1020.9337,44.7109 1020.8897,44.3889 C1020.8457,44.0679 1020.8007,43.7849 1020.7617,43.5469 C1020.7157,43.2659 1020.6827,43.0029 1020.6587,42.7669 C1020.6387,42.7629 1020.6287,42.7609 1020.6087,42.7569 C1020.5327,42.9749 1020.4457,43.2129 1020.3477,43.4679 C1020.2647,43.6839 1020.1647,43.9359 1020.0547,44.2249 C1019.9447,44.5129 1019.8247,44.8219 1019.6917,45.1489 C1019.1817,46.4229 1018.9267,47.0599 1018.4157,48.3359 C1019.7087,48.5789 1020.3547,48.7009 1021.6467,48.9469 L1021.6467,48.9469 Z M1016.4637,53.1619 C1016.3337,53.4719 1016.1947,53.7589 1016.0487,54.0239 C1015.9037,54.2889 1015.7227,54.4999 1015.5077,54.6569 C1015.3017,54.8079 1015.0527,54.9099 1014.7597,54.9619 C1014.4657,55.0149 1014.1357,55.0069 1013.7657,54.9389 C1013.4387,54.8779 1013.1177,54.7669 1012.8017,54.6049 C1012.4857,54.4439 1012.2077,54.2439 1011.9647,54.0059 C1011.7227,53.7689 1011.5357,53.4959 1011.4037,53.1879 C1011.2717,52.8809 1011.2257,52.5539 1011.2657,52.2099 C1011.2867,52.0249 1011.3287,51.8419 1011.3927,51.6599 C1011.4567,51.4789 1011.5607,51.2379 1011.7067,50.9389 C1013.5317,47.0759 1014.4437,45.1449 1016.2677,41.2849 C1016.4157,40.9689 1016.5597,40.6859 1016.6997,40.4379 C1016.8397,40.1899 1016.9807,39.9659 1017.1237,39.7699 C1017.2657,39.5739 1017.4127,39.3989 1017.5627,39.2459 C1017.7127,39.0939 1017.8727,38.9569 1018.0407,38.8329 C1018.4147,38.5599 1018.8717,38.3819 1019.4127,38.2989 C1019.9527,38.2149 1020.6177,38.2479 1021.4057,38.3979 C1022.1927,38.5469 1022.8367,38.7619 1023.3357,39.0419 C1023.8347,39.3219 1024.2327,39.6619 1024.5287,40.0629 C1024.6627,40.2429 1024.7837,40.4339 1024.8937,40.6349 C1025.0027,40.8369 1025.1037,41.0579 1025.1967,41.2989 C1025.2887,41.5399 1025.3717,41.8059 1025.4447,42.0949 C1025.5197,42.3839 1025.5957,42.7079 1025.6737,43.0669 C1026.5547,47.3979 1026.9957,49.5649 1027.8757,53.8989 C1027.9477,54.2389 1027.9947,54.5089 1028.0147,54.7049 C1028.0357,54.9039 1028.0347,55.0859 1028.0157,55.2539 C1027.9707,55.6489 1027.8407,55.9769 1027.6267,56.2359 C1027.4127,56.4949 1027.1567,56.6949 1026.8587,56.8339 C1026.5597,56.9739 1026.2327,57.0589 1025.8787,57.0889 C1025.5237,57.1189 1025.1837,57.1019 1024.8567,57.0389 C1024.4627,56.9629 1024.1277,56.8379 1023.8527,56.6649 C1023.5767,56.4919 1023.3467,56.2799 1023.1617,56.0289 C1022.9907,55.7989 1022.8627,55.5379 1022.7757,55.2469 C1022.6897,54.9549 1022.6197,54.6409 1022.5627,54.3039 C1022.4797,53.8189 1022.4377,53.5759 1022.3547,53.0909 C1020.1777,52.6749 1019.0887,52.4679 1016.9107,52.0599 C1016.7317,52.5009 1016.6427,52.7209 1016.4637,53.1619 L1016.4637,53.1619 Z M1002.4557,48.7249 C1003.0597,48.8319 1003.6147,48.8319 1004.1197,48.7249 C1004.6247,48.6189 1005.0697,48.3969 1005.4557,48.0639 C1005.8407,47.7299 1006.1607,47.2729 1006.4167,46.6919 C1006.6717,46.1109 1006.8467,45.4049 1006.9427,44.5719 C1007.0397,43.7309 1007.0397,43.0019 1006.9437,42.3839 C1006.8477,41.7659 1006.6577,41.2419 1006.3727,40.8139 C1006.0877,40.3849 1005.7097,40.0399 1005.2377,39.7789 C1004.7667,39.5199 1004.2037,39.3309 1003.5487,39.2149 C1003.0347,39.1229 1002.7777,39.0779 1002.2637,38.9869 C1001.8257,42.7909 1001.6077,44.6929 1001.1697,48.4969 C1001.6847,48.5879 1001.9407,48.6329 1002.4557,48.7249 L1002.4557,48.7249 Z M997.1027,36.4619 C997.1877,35.7219 997.4587,35.1819 997.9177,34.8409 C998.3767,34.4999 998.9777,34.3949 999.7167,34.5239 C1001.5167,34.8389 1002.4157,34.9979 1004.2147,35.3179 C1005.7017,35.5819 1006.9937,36.0139 1008.0897,36.6099 C1009.1857,37.2069 1010.0807,37.9399 1010.7737,38.8039 C1011.4677,39.6679 1011.9547,40.6509 1012.2357,41.7499 C1012.5157,42.8489 1012.5837,44.0289 1012.4387,45.2899 C1012.2767,46.6939 1011.9197,47.9159 1011.3687,48.9569 C1010.8157,49.9979 1010.0847,50.8339 1009.1777,51.4669 C1008.2687,52.0999 1007.1967,52.5189 1005.9607,52.7249 C1004.7247,52.9309 1003.3377,52.8969 1001.8007,52.6239 C1000.1687,52.3339 999.3517,52.1899 997.7187,51.9039 C996.9787,51.7749 996.4267,51.4689 996.0617,50.9849 C995.6977,50.5009 995.5587,49.8899 995.6437,49.1499 C996.2277,44.0749 996.5187,41.5369 997.1027,36.4619 L997.1027,36.4619 Z M988.2717,40.9479 C988.8517,41.0459 989.3497,40.9329 989.7647,40.6079 C990.1787,40.2829 990.4267,39.7719 990.5067,39.0749 C990.5877,38.3689 990.4677,37.8059 990.1467,37.3869 C989.8267,36.9689 989.3047,36.6989 988.5817,36.5779 C988.2637,36.5239 988.1047,36.4979 987.7867,36.4449 C987.5867,38.1799 987.4877,39.0479 987.2877,40.7829 C987.6817,40.8489 987.8777,40.8819 988.2717,40.9479 L988.2717,40.9479 Z M986.4937,47.6949 C986.4077,48.4429 986.1277,48.9859 985.6557,49.3229 C985.1847,49.6599 984.4907,49.7519 983.5737,49.5999 C982.6557,49.4479 982.0077,49.1339 981.6297,48.6569 C981.2517,48.1789 981.1057,47.5659 981.1917,46.8179 C981.7807,41.7019 982.0747,39.1439 982.6627,34.0289 C982.7477,33.2889 983.0197,32.7469 983.4787,32.4019 C983.9387,32.0579 984.5397,31.9469 985.2797,32.0689 C986.8547,32.3289 987.6437,32.4609 989.2177,32.7249 C990.4537,32.9319 991.5137,33.2569 992.3967,33.6989 C993.2817,34.1419 993.9997,34.6739 994.5537,35.2959 C995.1067,35.9179 995.4957,36.6109 995.7167,37.3739 C995.9377,38.1359 995.9997,38.9379 995.9037,39.7789 C995.7917,40.7539 995.5397,41.5999 995.1477,42.3179 C994.7567,43.0339 994.2227,43.6119 993.5417,44.0479 C992.8627,44.4839 992.0277,44.7629 991.0407,44.8869 C990.0527,45.0109 988.9117,44.9639 987.6167,44.7459 C987.3087,44.6949 987.1547,44.6689 986.8477,44.6179 L986.4937,47.6949 Z M965.3377,31.1899 C965.4247,30.4419 965.7097,29.8969 966.1957,29.5559 C966.6807,29.2149 967.3787,29.1139 968.2887,29.2549 C969.2077,29.3959 969.8597,29.7039 970.2477,30.1799 C970.6337,30.6549 970.7847,31.2669 970.6987,32.0149 C970.3377,35.1529 970.1577,36.7219 969.7967,39.8609 C969.7277,40.4659 969.7267,40.9919 969.7957,41.4389 C969.8637,41.8859 969.9897,42.2659 970.1727,42.5769 C970.3567,42.8879 970.5867,43.1309 970.8677,43.3089 C971.1477,43.4849 971.4597,43.5999 971.8057,43.6539 C972.1347,43.7059 972.4407,43.6959 972.7217,43.6259 C973.0037,43.5549 973.2567,43.4139 973.4777,43.2059 C973.6987,42.9959 973.8827,42.7199 974.0297,42.3749 C974.1777,42.0299 974.2797,41.6049 974.3367,41.1009 C974.7217,37.7559 974.9147,36.0829 975.2987,32.7389 C975.3847,31.9909 975.6677,31.4469 976.1487,31.1079 C976.6287,30.7689 977.3287,30.6729 978.2467,30.8199 C979.1557,30.9659 979.8057,31.2789 980.1967,31.7569 C980.5877,32.2369 980.7397,32.8509 980.6537,33.5989 C980.2877,36.7819 980.1047,38.3739 979.7387,41.5569 C979.5997,42.7679 979.3127,43.8109 978.8777,44.6879 C978.4427,45.5629 977.8647,46.2639 977.1437,46.7899 C976.4227,47.3159 975.5607,47.6639 974.5537,47.8329 C973.5477,48.0019 972.4047,47.9859 971.1247,47.7849 C969.8607,47.5859 968.7737,47.2589 967.8667,46.8069 C966.9577,46.3539 966.2217,45.7859 965.6567,45.0999 C965.0917,44.4139 964.7037,43.6149 964.4917,42.7009 C964.2787,41.7869 964.2357,40.7759 964.3637,39.6659 C964.7537,36.2749 964.9487,34.5799 965.3377,31.1899 L965.3377,31.1899 Z" id="updates"></path>
            </g>
        </g>
    </g>
</svg>