<?xml version="1.0" encoding="UTF-8" standalone="no"?>
<svg width="124px" height="37px" viewBox="0 0 124 37" version="1.1" xmlns="http://www.w3.org/2000/svg" xmlns:xlink="http://www.w3.org/1999/xlink">
    <g id="D2-How-to-vote" stroke="none" stroke-width="1" fill="none" fill-rule="evenodd">
        <g id="D2.1_howtovote" transform="translate(-178.000000, -300.000000)" fill="#009DEE">
            <g id="nav-text" transform="translate(48.000000, 48.000000)">
                <path d="M247.0267,266.4485 C248.9257,266.1925 249.8747,266.0655 251.7747,265.8155 C252.2817,265.7485 252.7037,265.8595 253.0417,266.1475 C253.3797,266.4365 253.5837,266.9175 253.6527,267.5905 C253.7237,268.2635 253.6237,268.7845 253.3537,269.1525 C253.0837,269.5215 252.6957,269.7385 252.1887,269.8055 C249.0837,270.2155 247.5317,270.4235 244.4287,270.8475 C243.6857,270.9485 243.0867,270.8225 242.6297,270.4665 C242.1737,270.1105 241.9077,269.5625 241.8307,268.8215 C241.3027,263.7405 241.0387,261.1995 240.5117,256.1185 C240.4347,255.3775 240.5797,254.7725 240.9507,254.3035 C241.3217,253.8335 241.8787,253.5485 242.6207,253.4465 C245.6987,253.0265 247.2387,252.8205 250.3177,252.4135 C250.8327,252.3455 251.2597,252.4555 251.5977,252.7445 C251.9347,253.0325 252.1397,253.5135 252.2097,254.1875 C252.2797,254.8605 252.1787,255.3815 251.9097,255.7495 C251.6407,256.1175 251.2467,256.3355 250.7327,256.4035 C248.8587,256.6515 247.9217,256.7765 246.0477,257.0285 C246.1587,258.0945 246.2147,258.6265 246.3247,259.6925 C247.8897,259.4815 248.6717,259.3775 250.2357,259.1705 C250.7257,259.1055 251.1387,259.2195 251.4727,259.5115 C251.8067,259.8055 252.0067,260.2715 252.0727,260.9115 C252.1397,261.5525 252.0407,262.0575 251.7757,262.4295 C251.5107,262.8015 251.1327,263.0195 250.6427,263.0845 C249.0777,263.2925 248.2957,263.3965 246.7317,263.6075 C246.8497,264.7435 246.9087,265.3125 247.0267,266.4485 M227.1257,259.8865 C226.5777,259.9665 226.1277,259.8595 225.7767,259.5655 C225.4247,259.2695 225.2117,258.7655 225.1377,258.0495 C225.0627,257.3335 225.1647,256.7835 225.4407,256.3965 C225.7167,256.0105 226.1337,255.7755 226.6897,255.6945 C231.1897,255.0385 233.4417,254.7185 237.9447,254.0915 C238.5007,254.0135 238.9547,254.1245 239.3017,254.4215 C239.6487,254.7195 239.8597,255.2265 239.9337,255.9415 C240.0077,256.6575 239.9047,257.2085 239.6237,257.5925 C239.3437,257.9765 238.9287,258.2075 238.3807,258.2835 C237.2017,258.4475 236.6117,258.5305 235.4327,258.6965 C235.8887,263.0805 236.1167,265.2725 236.5717,269.6565 C236.6497,270.4055 236.4907,271.0155 236.0947,271.4865 C235.6987,271.9565 235.0407,272.2565 234.1217,272.3875 C233.2107,272.5165 232.5177,272.4095 232.0407,272.0635 C231.5637,271.7175 231.2877,271.1695 231.2097,270.4205 C230.7547,266.0365 230.5267,263.8445 230.0707,259.4605 C228.8927,259.6295 228.3037,259.7155 227.1257,259.8865 M213.8517,266.4395 C213.9387,267.2725 214.1067,267.9825 214.3557,268.5685 C214.6047,269.1555 214.9077,269.6255 215.2657,269.9815 C215.6237,270.3375 216.0237,270.5815 216.4647,270.7155 C216.9047,270.8485 217.3667,270.8795 217.8467,270.8065 C218.3177,270.7355 218.7527,270.5705 219.1487,270.3145 C219.5457,270.0585 219.8787,269.7065 220.1497,269.2595 C220.4187,268.8135 220.6137,268.2715 220.7307,267.6335 C220.8477,266.9965 220.8647,266.2645 220.7787,265.4395 C220.6927,264.6065 220.5237,263.8945 220.2747,263.3035 C220.0247,262.7115 219.7207,262.2365 219.3627,261.8765 C219.0047,261.5145 218.6047,261.2675 218.1637,261.1335 C217.7217,260.9995 217.2607,260.9685 216.7807,261.0415 C216.3097,261.1125 215.8747,261.2775 215.4787,261.5335 C215.0817,261.7905 214.7487,262.1455 214.4787,262.5975 C214.2097,263.0495 214.0157,263.5945 213.8977,264.2315 C213.7807,264.8705 213.7657,265.6065 213.8517,266.4395 M208.4027,267.5685 C208.2527,266.1285 208.3287,264.8035 208.6297,263.5935 C208.9327,262.3825 209.4377,261.3165 210.1457,260.3985 C210.8527,259.4805 211.7467,258.7215 212.8217,258.1255 C213.8977,257.5275 215.1377,257.1215 216.5437,256.9085 C217.8987,256.7025 219.1417,256.7215 220.2697,256.9625 C221.3987,257.2045 222.3817,257.6485 223.2177,258.2935 C224.0557,258.9395 224.7317,259.7735 225.2497,260.7965 C225.7657,261.8185 226.0947,263.0025 226.2347,264.3495 C226.3837,265.7805 226.3067,267.0985 226.0037,268.3005 C225.7007,269.5025 225.1937,270.5615 224.4847,271.4735 C223.7767,272.3845 222.8807,273.1385 221.8007,273.7305 C220.7207,274.3245 219.4817,274.7275 218.0837,274.9395 C216.7277,275.1455 215.4857,275.1305 214.3587,274.8935 C213.2307,274.6565 212.2487,274.2205 211.4137,273.5855 C210.5767,272.9495 209.9017,272.1245 209.3857,271.1105 C208.8697,270.0965 208.5427,268.9155 208.4027,267.5685 M192.5447,264.6845 C192.4097,264.3735 192.3117,264.1285 192.2507,263.9495 C192.1887,263.7715 192.1497,263.5945 192.1317,263.4175 C192.0897,263.0215 192.1457,262.6565 192.2997,262.3235 C192.4537,261.9895 192.6637,261.6955 192.9327,261.4405 C193.2007,261.1865 193.5017,260.9795 193.8357,260.8175 C194.1697,260.6545 194.4957,260.5475 194.8157,260.4945 C195.2017,260.4315 195.5417,260.4335 195.8297,260.5015 C196.1187,260.5695 196.3597,260.6785 196.5557,260.8265 C196.7687,260.9885 196.9437,261.1985 197.0767,261.4535 C197.2097,261.7095 197.3387,261.9915 197.4647,262.2955 C198.6857,265.3275 199.2967,266.8445 200.5177,269.8765 C200.6307,270.1575 200.7397,270.4445 200.8427,270.7365 C200.9457,271.0275 201.0357,271.2955 201.1117,271.5405 C201.2017,271.8245 201.2857,272.1025 201.3647,272.3725 C201.3847,272.3685 201.3947,272.3675 201.4147,272.3645 C201.4207,272.0895 201.4257,271.7965 201.4417,271.4995 C201.4547,271.2515 201.4797,270.9635 201.5067,270.6415 C201.5337,270.3205 201.5687,270.0065 201.6147,269.6995 C202.0937,266.3875 202.3327,264.7315 202.8117,261.4205 C202.8557,261.1055 202.9177,260.7985 202.9977,260.4975 C203.0777,260.1985 203.2087,259.9325 203.3887,259.6985 C203.5477,259.4925 203.7627,259.3155 204.0337,259.1655 C204.3037,259.0155 204.6077,258.9135 204.9437,258.8605 C205.2557,258.8115 205.5827,258.8085 205.9247,258.8525 C206.2667,258.8965 206.5847,258.9925 206.8717,259.1395 C207.1597,259.2865 207.4077,259.4855 207.6137,259.7355 C207.8187,259.9855 207.9417,260.2965 207.9797,260.6665 C207.9947,260.8095 207.9897,260.9805 207.9677,261.1745 C207.9447,261.3705 207.9037,261.6315 207.8447,261.9585 C206.9537,266.5325 206.5087,268.8215 205.6177,273.3985 C205.5177,273.9195 205.3917,274.3755 205.2407,274.7685 C205.0887,275.1605 204.8917,275.5125 204.6507,275.8245 C204.3957,276.1565 204.0307,276.4575 203.5577,276.7255 C203.0877,276.9925 202.4377,277.1935 201.6137,277.3265 C200.7897,277.4595 200.1207,277.4715 199.6097,277.3625 C199.0997,277.2535 198.6857,277.0785 198.3697,276.8385 C198.0727,276.6135 197.8107,276.3355 197.5847,276.0035 C197.3577,275.6725 197.1427,275.2715 196.9397,274.7995 C195.1817,270.7525 194.3027,268.7295 192.5447,264.6845 M173.4857,268.8025 C173.3767,268.6585 173.2747,268.5185 173.1787,268.3805 C173.0837,268.2435 172.9967,268.1045 172.9177,267.9645 C172.8387,267.8235 172.7727,267.6815 172.7187,267.5365 C172.6657,267.3915 172.6297,267.2345 172.6127,267.0665 C172.5687,266.6465 172.6237,266.2505 172.7777,265.8795 C172.9317,265.5095 173.1427,265.1815 173.4127,264.8935 C173.6817,264.6045 173.9847,264.3675 174.3247,264.1785 C174.6647,263.9905 174.9977,263.8675 175.3247,263.8095 C175.7027,263.7435 176.0207,263.7505 176.2817,263.8285 C176.5417,263.9065 176.7647,264.0165 176.9497,264.1555 C177.1167,264.2805 177.2757,264.4385 177.4287,264.6305 C177.5807,264.8225 177.7577,265.0635 177.9587,265.3545 C178.7777,266.5795 179.1877,267.1915 180.0077,268.4175 C180.0987,268.5565 180.1857,268.6975 180.2697,268.8415 C180.3527,268.9855 180.4367,269.1175 180.5017,269.2315 C180.5787,269.3655 180.6507,269.5105 180.7247,269.6435 L180.7747,269.6345 C180.8017,269.4845 180.8337,269.3275 180.8667,269.1685 C180.8967,269.0275 180.9327,268.8705 180.9787,268.6995 C181.0257,268.5285 181.0777,268.3605 181.1377,268.1965 C181.6237,266.7505 181.8667,266.0265 182.3517,264.5815 C182.4707,264.2355 182.5767,263.9475 182.6727,263.7165 C182.7677,263.4855 182.8917,263.2715 183.0417,263.0745 C183.2147,262.8485 183.4257,262.6615 183.6757,262.5165 C183.9257,262.3705 184.1977,262.2725 184.4917,262.2225 C184.8367,262.1645 185.1827,262.1685 185.5307,262.2325 C185.8787,262.2975 186.1977,262.4175 186.4857,262.5915 C186.7717,262.7645 187.0137,262.9885 187.2087,263.2595 C187.4027,263.5305 187.5187,263.8425 187.5557,264.1965 C187.5887,264.5155 187.5557,264.8205 187.4577,265.1055 C187.3587,265.3915 187.2367,265.7015 187.0927,266.0345 C185.6967,269.2775 184.9977,270.9005 183.6017,274.1475 C183.7567,275.6375 183.8347,276.3825 183.9887,277.8725 C184.0667,278.6215 183.9087,279.2375 183.5147,279.7215 C183.1207,280.2045 182.4657,280.5255 181.5507,280.6835 C180.6437,280.8405 179.9537,280.7535 179.4787,280.4205 C179.0037,280.0875 178.7287,279.5455 178.6507,278.7975 C178.4957,277.3075 178.4187,276.5625 178.2637,275.0725 C176.3517,272.5625 175.3967,271.3085 173.4857,268.8025 M163.3387,281.5425 C163.4167,282.2915 163.2607,282.9105 162.8717,283.3985 C162.4827,283.8865 161.8317,284.2145 160.9187,284.3835 C160.0047,284.5525 159.3117,284.4735 158.8377,284.1465 C158.3637,283.8185 158.0887,283.2795 158.0107,282.5305 C157.4747,277.3685 157.2067,274.7875 156.6697,269.6255 C156.5927,268.8765 156.7487,268.2575 157.1427,267.7665 C157.5357,267.2775 158.1847,266.9485 159.0897,266.7805 C160.0027,266.6115 160.6957,266.6915 161.1707,267.0205 C161.6447,267.3495 161.9207,267.8885 161.9987,268.6375 C162.1757,270.3445 162.2647,271.1985 162.4417,272.9055 C164.3177,272.5605 165.2557,272.3895 167.1317,272.0495 C166.9547,270.3425 166.8657,269.4885 166.6887,267.7815 C166.6107,267.0325 166.7667,266.4145 167.1557,265.9275 C167.5447,265.4415 168.1977,265.1165 169.1107,264.9525 C170.0167,264.7895 170.7087,264.8745 171.1877,265.2045 C171.6657,265.5355 171.9437,266.0755 172.0217,266.8245 C172.5577,271.9865 172.8267,274.5675 173.3627,279.7295 C173.4407,280.4785 173.2847,281.0955 172.8957,281.5815 C172.5057,282.0665 171.8527,282.3905 170.9397,282.5545 C170.0257,282.7195 169.3307,282.6365 168.8567,282.3065 C168.3827,281.9755 168.1067,281.4355 168.0287,280.6875 C167.8477,278.9395 167.7567,278.0655 167.5747,276.3175 C165.6987,276.6575 164.7607,276.8285 162.8857,277.1735 C163.0667,278.9215 163.1577,279.7945 163.3387,281.5425 M131.1747,275.7345 C131.0747,275.4275 131.0057,275.1985 130.9687,275.0465 C130.9317,274.8955 130.9077,274.7605 130.8957,274.6435 C130.8547,274.2555 130.9067,273.8955 131.0507,273.5605 C131.1957,273.2265 131.3957,272.9305 131.6497,272.6725 C131.9047,272.4155 132.1987,272.2015 132.5297,272.0315 C132.8627,271.8615 133.1957,271.7425 133.5297,271.6755 C133.9057,271.6005 134.2497,271.5895 134.5567,271.6435 C134.8637,271.6975 135.1207,271.7995 135.3247,271.9485 C135.5927,272.1435 135.7917,272.3915 135.9197,272.6865 C136.0477,272.9825 136.1577,273.2735 136.2467,273.5555 C137.1667,276.5325 137.6277,278.0215 138.5477,280.9995 C138.6487,281.3135 138.7347,281.6175 138.8027,281.9085 C138.8717,282.1995 138.9297,282.4625 138.9807,282.6915 C139.0397,282.9615 139.0947,283.2145 139.1367,283.4475 C139.1567,283.4435 139.1667,283.4405 139.1867,283.4375 C139.1777,283.1895 139.1777,282.9215 139.1797,282.6395 C139.1827,282.4005 139.1867,282.1225 139.1957,281.8115 C139.2067,281.5005 139.2277,281.1735 139.2617,280.8325 C139.5337,277.7935 139.6697,276.2745 139.9417,273.2365 C140.0317,272.2135 140.3457,271.4285 140.8807,270.8805 C141.4177,270.3325 142.1827,269.9615 143.1787,269.7675 C144.1827,269.5725 144.9987,269.6345 145.6247,269.9555 C146.2517,270.2775 146.7137,270.9205 147.0097,271.8845 C147.8667,274.7025 148.2947,276.1115 149.1517,278.9295 C149.2427,279.2385 149.3297,279.5395 149.4117,279.8335 C149.4937,280.1265 149.5667,280.3945 149.6227,280.6295 C149.6867,280.8975 149.7467,281.1635 149.8077,281.4185 C149.8277,281.4155 149.8377,281.4135 149.8577,281.4095 C149.8477,281.1445 149.8467,280.8685 149.8487,280.5865 C149.8497,280.3395 149.8517,280.0605 149.8587,279.7535 C149.8647,279.4485 149.8807,279.1345 149.9067,278.8115 C150.1307,275.6105 150.2427,274.0105 150.4657,270.8105 C150.4917,270.4795 150.5307,270.1515 150.5827,269.8275 C150.6327,269.5055 150.7567,269.2135 150.9517,268.9535 C151.1467,268.6935 151.3907,268.4765 151.6847,268.3045 C151.9777,268.1335 152.3017,268.0145 152.6527,267.9485 C152.9797,267.8865 153.3107,267.8735 153.6477,267.9075 C153.9847,267.9435 154.2937,268.0315 154.5717,268.1715 C154.8507,268.3115 155.0847,268.5025 155.2717,268.7415 C155.4587,268.9805 155.5707,269.2775 155.6077,269.6315 C155.6147,269.6985 155.6187,269.7665 155.6217,269.8345 C155.6247,269.9025 155.6247,269.9795 155.6207,270.0665 C155.6167,270.1535 155.6077,270.2535 155.5937,270.3675 C155.5797,270.4825 155.5647,270.6175 155.5467,270.7755 C155.0317,275.3215 154.7737,277.5945 154.2577,282.1425 C154.1977,282.7115 154.0987,283.2155 153.9607,283.6535 C153.8217,284.0915 153.6307,284.4755 153.3827,284.8055 C153.0967,285.1865 152.7107,285.5065 152.2267,285.7655 C151.7417,286.0255 151.1397,286.2245 150.4187,286.3625 C149.6987,286.5005 149.0877,286.5335 148.5857,286.4635 C148.0837,286.3935 147.6567,286.2285 147.3057,285.9705 C147.0007,285.7465 146.7487,285.4455 146.5517,285.0675 C146.3547,284.6885 146.1727,284.2325 146.0067,283.6975 C145.2247,281.1545 144.8337,279.8825 144.0507,277.3405 C143.9747,277.0975 143.9057,276.8445 143.8447,276.5815 C143.7837,276.3195 143.7287,276.0745 143.6787,275.8545 C143.6197,275.5935 143.5697,275.3345 143.5347,275.0835 L143.4847,275.0935 C143.4937,275.3485 143.4987,275.6165 143.5037,275.8885 C143.5077,276.1175 143.5107,276.3745 143.5067,276.6535 C143.5017,276.9345 143.4867,277.2095 143.4637,277.4805 C143.2307,280.2105 143.1147,281.5765 142.8817,284.3065 C142.8307,284.8835 142.7487,285.3915 142.6377,285.8305 C142.5247,286.2695 142.3447,286.6545 142.0977,286.9865 C141.8137,287.3685 141.4357,287.6895 140.9687,287.9485 C140.5017,288.2085 139.9067,288.4105 139.1887,288.5525 C138.4687,288.6955 137.8497,288.7345 137.3327,288.6705 C136.8147,288.6065 136.3787,288.4465 136.0287,288.1905 C135.7237,287.9675 135.4607,287.6725 135.2387,287.3045 C135.0167,286.9365 134.8187,286.4905 134.6447,285.9665 C133.2567,281.8735 132.5627,279.8265 131.1747,275.7345" id="whyvote"></path>
            </g>
        </g>
    </g>
</svg>